<svg xmlns="http://www.w3.org/2000/svg" xmlns:xlink="http://www.w3.org/1999/xlink" width="709.3" height="434.5" viewBox="0 0 709.3 434.5">
  <defs>
    <style>
      .cls-1, .cls-10, .cls-4, .cls-5, .cls-6, .cls-8, .cls-9 {
        fill: none;
      }

      .cls-2 {
        fill: #f2f1f0;
        opacity: 0.7;
      }

      .cls-3 {
        fill: #31556f;
      }

      .cls-4, .cls-5 {
        stroke: #5d77a6;
      }

      .cls-10, .cls-4, .cls-5, .cls-6, .cls-8, .cls-9 {
        stroke-linecap: round;
      }

      .cls-10, .cls-13, .cls-4, .cls-42, .cls-5, .cls-6, .cls-8, .cls-9 {
        stroke-miterlimit: 10;
      }

      .cls-4 {
        stroke-width: 1.21px;
      }

      .cls-5 {
        stroke-width: 1.19px;
      }

      .cls-10, .cls-6, .cls-8, .cls-9 {
        stroke: #c1eee6;
      }

      .cls-6 {
        stroke-width: 1.34px;
      }

      .cls-7 {
        fill: #3a6594;
      }

      .cls-8 {
        stroke-width: 1.48px;
      }

      .cls-9 {
        stroke-width: 1.34px;
      }

      .cls-10 {
        stroke-width: 1.46px;
      }

      .cls-11, .cls-13 {
        fill: #b3b3b3;
      }

      .cls-12 {
        fill: #59595b;
      }

      .cls-13 {
        stroke: #b3b3b3;
        stroke-width: 2.95px;
      }

      .cls-13, .cls-23 {
        opacity: 0.8;
      }

      .cls-14 {
        fill: url(#linear-gradient);
      }

      .cls-15 {
        fill: #1c323f;
      }

      .cls-15, .cls-31, .cls-40 {
        opacity: 0.2;
      }

      .cls-16 {
        fill: #a5284c;
      }

      .cls-17 {
        fill: #eee;
      }

      .cls-18 {
        fill: #fff;
      }

      .cls-19 {
        fill: #b2b2b2;
      }

      .cls-20 {
        fill: #fd3b6d;
      }

      .cls-21 {
        fill: #4c7ba5;
      }

      .cls-22 {
        fill: #8bbff7;
      }

      .cls-23 {
        fill: #5d77a6;
      }

      .cls-24 {
        fill: url(#linear-gradient-2);
      }

      .cls-25 {
        fill: #e53505;
      }

      .cls-26 {
        fill: url(#linear-gradient-3);
      }

      .cls-27 {
        fill: url(#linear-gradient-4);
      }

      .cls-28 {
        fill: url(#linear-gradient-5);
      }

      .cls-29 {
        fill: #4b6590;
      }

      .cls-30 {
        fill: #ffc1b7;
      }

      .cls-31, .cls-32, .cls-52, .cls-53 {
        fill: #ffbfa4;
      }

      .cls-33 {
        fill: #363636;
      }

      .cls-34 {
        fill: #2f3f5c;
      }

      .cls-35 {
        fill: #483d3f;
      }

      .cls-36 {
        fill: #ffcd51;
      }

      .cls-37 {
        clip-path: url(#clip-path);
      }

      .cls-38 {
        fill: #1754be;
      }

      .cls-39 {
        fill: #f24250;
      }

      .cls-40 {
        fill: #1f2d42;
      }

      .cls-41 {
        fill: #18d1b6;
      }

      .cls-42 {
        fill: #cfcfcf;
        stroke: #e0e0e0;
      }

      .cls-43 {
        fill: #16917d;
      }

      .cls-44 {
        fill: #8cb9ff;
      }

      .cls-45 {
        fill: #878787;
      }

      .cls-46 {
        fill: #f4bd95;
      }

      .cls-47 {
        fill: #ff375a;
      }

      .cls-48 {
        fill: #fa7671;
      }

      .cls-49 {
        fill: #e89f40;
      }

      .cls-50 {
        fill: #6270ca;
      }

      .cls-51 {
        fill: #7c2b4a;
      }

      .cls-52 {
        opacity: 0.6;
      }

      .cls-53 {
        opacity: 0.1;
      }
    </style>
    <linearGradient id="linear-gradient" x1="493.71" y1="372.4" x2="493.71" y2="179.31" gradientTransform="translate(77.3 1.6) scale(0.82 1)" gradientUnits="userSpaceOnUse">
      <stop offset="0" stop-color="#64a0f0"/>
      <stop offset="1" stop-color="#64dcdd"/>
    </linearGradient>
    <linearGradient id="linear-gradient-2" x1="472.2" y1="208.69" x2="472.2" y2="252.23" gradientTransform="matrix(0.87, -0.5, 0.5, 0.87, -83.8, 170.28)" gradientUnits="userSpaceOnUse">
      <stop offset="0.02" stop-color="#fed845"/>
      <stop offset="1" stop-color="#fe8600"/>
    </linearGradient>
    <linearGradient id="linear-gradient-3" x1="464.09" y1="269.2" x2="485.73" y2="269.2" xlink:href="#linear-gradient-2"/>
    <linearGradient id="linear-gradient-4" x1="522.67" y1="183.3" x2="522.67" y2="210.67" gradientTransform="matrix(1, 0.09, -0.09, 1, -24.57, -108.37)" xlink:href="#linear-gradient-2"/>
    <linearGradient id="linear-gradient-5" x1="517.57" y1="221.34" x2="531.18" y2="221.34" gradientTransform="matrix(1, 0.09, -0.09, 1, -24.57, -108.37)" xlink:href="#linear-gradient-2"/>
    <clipPath id="clip-path" transform="translate(-27.5 -42.4)">
      <path class="cls-1" d="M517.4,238.4s-22,31.5-26.7,80c0,0,66.7,21.4,98.6-14.8,0,0-19.7-44.4-41.8-67.8l-1.3-8.7s9.9-7.9-.4-17.1c0,0-11.4-7.4-14.2-14.2l-2.4.9s6.3,12.9,4.1,19.7a43,43,0,0,1-23.4-15.3l-1.5.2s4.1,16.7,1.8,28.6Z"/>
    </clipPath>
  </defs>
  <g id="BACKGROUND">
    <path class="cls-2" d="M349.5,458.4C293.8,475.3,185.9,509,81.6,400.8S22.6,33.3,225.5,79.9c112,25.7,136.7-25.4,256.7-36.3S704.1,94,726.5,179.2C769,340.7,674.8,411.1,527.8,410.1,412.2,409.3,405.1,441.5,349.5,458.4Z" transform="translate(-27.5 -42.4)"/>
  </g>
  <g id="OBJECTS">
    <g>
      <g>
        <path class="cls-3" d="M593.6,269.6s15.2-9,8.8-15C598,250.6,593.6,269.6,593.6,269.6Z" transform="translate(-27.5 -42.4)"/>
        <path class="cls-3" d="M588.4,277.3s10.3-19.1,1.8-21.2C584.4,254.8,588.4,277.3,588.4,277.3Z" transform="translate(-27.5 -42.4)"/>
        <path class="cls-3" d="M585.2,283.4s3.5-19.7-5-18.2C574.4,266.2,585.2,283.4,585.2,283.4Z" transform="translate(-27.5 -42.4)"/>
        <path class="cls-3" d="M588.5,276.7s21.7-1.1,19-9.4C605.7,261.6,588.5,276.7,588.5,276.7Z" transform="translate(-27.5 -42.4)"/>
        <path class="cls-3" d="M585.6,283.5s20.3,4.7,19-4.3C603.7,273.1,585.6,283.5,585.6,283.5Z" transform="translate(-27.5 -42.4)"/>
        <path class="cls-4" d="M598.6,262.1s-30.8,40.2-34.1,86.5" transform="translate(-27.5 -42.4)"/>
        <path class="cls-4" d="M603.7,269.6s-8.7,5.5-14.4,6.9a65.8,65.8,0,0,1,.9-14.7" transform="translate(-27.5 -42.4)"/>
        <path class="cls-4" d="M602.1,280.7s-12.3,2.9-16.9,2.7l-3.8-13.2" transform="translate(-27.5 -42.4)"/>
      </g>
      <g>
        <path class="cls-3" d="M372,280.2s-20.7-5.6-16.4-13.1C358.5,262,372,280.2,372,280.2Z" transform="translate(-27.5 -42.4)"/>
        <path class="cls-3" d="M379.2,285.9s-15.4-14.9-8-19.4C376.2,263.5,379.2,285.9,379.2,285.9Z" transform="translate(-27.5 -42.4)"/>
        <path class="cls-3" d="M384,290.8s-9.1-17.6-.7-18.7C389.1,271.4,384,290.8,384,290.8Z" transform="translate(-27.5 -42.4)"/>
        <path class="cls-3" d="M392.1,298.6s-9.2-17.5-.7-18.6C397.2,279.2,392.1,298.6,392.1,298.6Z" transform="translate(-27.5 -42.4)"/>
        <path class="cls-3" d="M399.5,307.7s-10.4-15.4-2.1-16.7C403.1,290,399.5,307.7,399.5,307.7Z" transform="translate(-27.5 -42.4)"/>
        <path class="cls-3" d="M378.9,285.4s-20.8,5.4-20.7-3.3C358.2,276.2,378.9,285.4,378.9,285.4Z" transform="translate(-27.5 -42.4)"/>
        <path class="cls-3" d="M383.6,290.9s-17.7,10.5-19.1,1.6C363.5,286.5,383.6,290.9,383.6,290.9Z" transform="translate(-27.5 -42.4)"/>
        <path class="cls-3" d="M391.7,298.5S374,309,372.6,300.1C371.6,294.1,391.7,298.5,391.7,298.5Z" transform="translate(-27.5 -42.4)"/>
        <path class="cls-3" d="M399,307.5s-17.6,7.1-17.7-1.2C381.3,300.7,399,307.5,399,307.5Z" transform="translate(-27.5 -42.4)"/>
        <path class="cls-5" d="M365,274.6s41,28.9,57.7,71.6" transform="translate(-27.5 -42.4)"/>
        <path class="cls-5" d="M362.5,283.2s9.8,2.7,15.6,2.2a66.7,66.7,0,0,0-5.2-13.5" transform="translate(-27.5 -42.4)"/>
        <path class="cls-5" d="M367.2,293.1s12.5-.8,16.8-2.3l-.4-13.6" transform="translate(-27.5 -42.4)"/>
        <path class="cls-5" d="M376.9,301l14.8-2.5s.3-7.8-.5-12.2" transform="translate(-27.5 -42.4)"/>
        <path class="cls-5" d="M384.6,306.5s8.9,1.5,14.4,1a96.4,96.4,0,0,1-1.3-13.6" transform="translate(-27.5 -42.4)"/>
      </g>
      <g>
        <path class="cls-3" d="M625.5,308.8s21.4.1,19.3-8.3C643.3,294.8,625.5,308.8,625.5,308.8Z" transform="translate(-27.5 -42.4)"/>
        <path class="cls-3" d="M617,312.4s18.8-10.3,12.9-16.6C625.8,291.5,617,312.4,617,312.4Z" transform="translate(-27.5 -42.4)"/>
        <path class="cls-3" d="M611,315.7s13.6-14.4,5.7-17.8C611.4,295.7,611,315.7,611,315.7Z" transform="translate(-27.5 -42.4)"/>
        <path class="cls-3" d="M601.1,321.1s13.6-14.4,5.7-17.8C601.4,301.1,601.1,321.1,601.1,321.1Z" transform="translate(-27.5 -42.4)"/>
        <path class="cls-3" d="M591.6,327.9s14.2-12.1,6.5-15.6C592.8,309.9,591.6,327.9,591.6,327.9Z" transform="translate(-27.5 -42.4)"/>
        <path class="cls-3" d="M617.4,311.9s18.6,10.8,20.9,2.4C639.8,308.6,617.4,311.9,617.4,311.9Z" transform="translate(-27.5 -42.4)"/>
        <path class="cls-3" d="M611.4,316s14.2,14.8,18,6.6C632,317.1,611.4,316,611.4,316Z" transform="translate(-27.5 -42.4)"/>
        <path class="cls-3" d="M601.6,321.1s14.2,14.8,18,6.7C622.1,322.2,601.6,321.1,601.6,321.1Z" transform="translate(-27.5 -42.4)"/>
        <path class="cls-3" d="M592.2,327.8s14.9,11.6,17.2,3.6C611,326,592.2,327.8,592.2,327.8Z" transform="translate(-27.5 -42.4)"/>
        <path class="cls-5" d="M633.7,305.2s-47.2,16.9-74.8,53.5" transform="translate(-27.5 -42.4)"/>
        <path class="cls-5" d="M633.8,314.2s-10.1-.1-15.6-2a60.7,60.7,0,0,1,8.6-11.7" transform="translate(-27.5 -42.4)"/>
        <path class="cls-5" d="M626.6,322.5s-11.8-4.2-15.6-6.8l4-13" transform="translate(-27.5 -42.4)"/>
        <path class="cls-5" d="M615.1,327.5l-13.5-6.4s1.7-7.6,3.7-11.6" transform="translate(-27.5 -42.4)"/>
        <path class="cls-5" d="M606.3,330.7s-9-1-14.1-2.9A99.8,99.8,0,0,0,597,315" transform="translate(-27.5 -42.4)"/>
      </g>
      <g>
        <path class="cls-3" d="M547.7,388.3s21.4,9.6,31.8,3-18.4-10.4-3.9-14c9.3-2.4,25,5.7,28.6-1.8s-15.6-7.6-9-15.2c3.7-4.2,38.6-5.4,33.5-18.9-7.1-18.9-25.5-5-31.9,3.4s-12.5,10.1-9.7-3-10.4-8.6-14.9,4.8-9.9,22.5-11.7,18.3,3.3-17.8-3.5-17.7C546.2,347.4,541.3,380.3,547.7,388.3Z" transform="translate(-27.5 -42.4)"/>
        <path class="cls-6" d="M619.2,340.9s-48.9,23.8-74.6,50.6" transform="translate(-27.5 -42.4)"/>
        <path class="cls-6" d="M594.2,373.2l-19.8-6s2.9-11.6,6.4-25.3" transform="translate(-27.5 -42.4)"/>
        <polyline class="cls-6" points="587.4 306.2 574 307.8 583.5 295.9"/>
        <line class="cls-6" x1="550.7" y1="309.6" x2="547.7" y2="303.8"/>
        <path class="cls-6" d="M572.2,387.3l-19.5-2.9s-1.5-13.2,1.7-25.3" transform="translate(-27.5 -42.4)"/>
      </g>
      <g>
        <path class="cls-7" d="M527.4,386.8s-10.3-24-6.3-36,10.2-8.3,15,.1,4.5-2.1,3.4-14.7,3.3-22.7,8.7-24.2,6.2,17.1,10.6,12.8,2.1-32.2,16.7-35.2,19.9,3.8,23.7,12.1-10.5,20.7-19.8,29.2-2.7,10.8,3.7,7.6,12.5,9.2,3,14.1-25.2,10.9-23.8,14.9,8.6-3.1,8.5,3.1S535.6,401.1,527.4,386.8Z" transform="translate(-27.5 -42.4)"/>
        <path class="cls-8" d="M584,302.5s-49.1,55.6-52.2,94.1" transform="translate(-27.5 -42.4)"/>
        <polyline class="cls-8" points="544.8 263.6 539.3 281.6 556.7 271.3"/>
        <path class="cls-8" d="M547.7,324.1s.2,19,1.7,26.4c0,0,15.6-1.4,30.4-4.2" transform="translate(-27.5 -42.4)"/>
        <path class="cls-8" d="M526.8,353.7s4.7,18.7,8,26.2c0,0,9.9.2,27.3-5.7" transform="translate(-27.5 -42.4)"/>
      </g>
      <g>
        <g>
          <path class="cls-7" d="M443.5,357.2s17.8-17.2,12.7-27.6-23.6,26-14.6-4.5c6.5-22,9.4-31,2.3-32.1s-16.9,26.8-18.8,7.2-12-29.9-18.9-26.4-11.7,12.8,4,32.5-13.1-.9-20,6.8,14.7,23.7,30.1,31.5-38.8,4.1,6.2,21.8C446.8,374.4,443.5,357.2,443.5,357.2Z" transform="translate(-27.5 -42.4)"/>
          <path class="cls-9" d="M405.7,281.1s30.5,61.2,36.6,80.1" transform="translate(-27.5 -42.4)"/>
          <polyline class="cls-9" points="387.3 241 387.2 256.4 378.6 248.1"/>
          <path class="cls-9" d="M405,323.7c8.7,4.3,24.7,7.8,24.7,7.8l8.8-21.6" transform="translate(-27.5 -42.4)"/>
          <polyline class="cls-9" points="372.7 274.4 377.8 281.5 368.3 279.8"/>
          <polyline class="cls-9" points="409.3 259.3 411 267.8 416.2 259.7"/>
          <line class="cls-9" x1="422.9" y1="294.4" x2="411.4" y2="310.4"/>
        </g>
        <line class="cls-9" x1="411.1" y1="315.6" x2="389.1" y2="313.2"/>
      </g>
      <g>
        <path class="cls-3" d="M435.8,399.5s-51-1.7-56.7-10.9,13.3-5,13-12.7-27.3-5.8-31.5-13.9,14.7-5.2,12.6-12.8-33-24.3-15.1-34.2,14,25.1,26.5,29,5.8-11.9,14.9-8.8.9,26.1,11.1,29.4S423.1,333.9,435.8,399.5Z" transform="translate(-27.5 -42.4)"/>
        <path class="cls-10" d="M440.7,401.2l-4.9-1.7s-44.9-33.6-70.9-73.6" transform="translate(-27.5 -42.4)"/>
        <polyline class="cls-10" points="340.6 278.3 340.6 288.6 332.2 283.8"/>
        <polyline class="cls-10" points="370.4 300 370.6 324.2 345.1 318.9"/>
        <polyline class="cls-10" points="394.7 323.8 395.5 346.8 362.4 345"/>
      </g>
    </g>
    <path class="cls-11" d="M412.2,186.1A13.2,13.2,0,0,1,424.3,172l91.2-7a13.1,13.1,0,0,1,14.1,12.1l.5,6.5a3.2,3.2,0,0,1,2.2,2.8l.4,4.5a3.1,3.1,0,0,1-1.8,3l.9,11.8a3.2,3.2,0,0,1,2.2,2.8l.8,9.8a3.3,3.3,0,0,1-1.8,3.1l.4,5.5a3.2,3.2,0,0,1,2.3,2.8l.7,9.8a3,3,0,0,1-1.8,3l11.1,143.8a13.2,13.2,0,0,1-12.1,14.1l-91.1,7a13.1,13.1,0,0,1-14.2-12.1Z" transform="translate(-27.5 -42.4)"/>
    <path class="cls-12" d="M433.4,395.3a13,13,0,0,0,14.1,12.1l91.1-7a13.1,13.1,0,0,0,12.1-14.1L534.6,177.1A13.1,13.1,0,0,0,520.5,165l-91.2,7a13.2,13.2,0,0,0-12.1,14.1Z" transform="translate(-27.5 -42.4)"/>
    <path class="cls-13" d="M481.7,388.7a9.6,9.6,0,1,0,8.8-10.3A9.5,9.5,0,0,0,481.7,388.7Z" transform="translate(-27.5 -42.4)"/>
    <rect class="cls-14" x="429.4" y="180.9" width="107" height="193.09" transform="translate(-48 -3.1) rotate(-4.6)"/>
    <g>
      <path class="cls-15" d="M523.6,318.6c.1,1.5-11.2,3.6-25.4,4.7s-25.7.9-25.8-.6,11.2-3.6,25.4-4.7S523.5,317.1,523.6,318.6Z" transform="translate(-27.5 -42.4)"/>
      <g>
        <path class="cls-16" d="M449.1,255s1.2,20.3,2.1,27.1c2.1,15.6,7.8,40.4,50.6,37L500,297.2s-21.3,3.6-25.9-17.9c-1.4-6.4-2.1-26.2-2.1-26.2Z" transform="translate(-27.5 -42.4)"/>
        <rect class="cls-17" x="463.5" y="235.2" width="7.7" height="18.23" transform="translate(-45.4 -4.5) rotate(-4.6)"/>
        <rect class="cls-18" x="440.6" y="236.5" width="23" height="18.23" transform="translate(-45.6 -5.7) rotate(-4.6)"/>
        <rect class="cls-17" x="512.3" y="230.7" width="23" height="18.23" transform="translate(-44.9 0) rotate(-4.6)"/>
        <rect class="cls-19" x="535.2" y="229.5" width="7.7" height="18.23" transform="translate(-44.8 1.2) rotate(-4.6)"/>
        <path class="cls-20" d="M441.3,255.6s1.3,20.4,2.2,27.1c2.1,15.6,7.8,40.7,50.6,37.3l-1.8-22.2s-21.3,3.6-26-17.9c-1.3-6.4-2.1-26.2-2.1-26.2Z" transform="translate(-27.5 -42.4)"/>
        <path class="cls-21" d="M543.7,247.4s2,20.3,2.1,27.1c.4,15.7-1.2,41.2-44,44.6L500,297.2s21.7.1,22.8-21.8c.4-6.6-2-26.2-2-26.2Z" transform="translate(-27.5 -42.4)"/>
        <path class="cls-22" d="M535.9,248s2,20.4,2.2,27.2c.4,15.7-1.2,41.4-44,44.8l-1.8-22.2s21.7.1,22.8-21.8c.4-6.6-2.1-26.1-2.1-26.1Z" transform="translate(-27.5 -42.4)"/>
      </g>
    </g>
    <path class="cls-23" d="M466.1,179.7a1.5,1.5,0,0,0,1.6,1.4l15.1-1.2a1.5,1.5,0,0,0,1.4-1.6h0a1.6,1.6,0,0,0-1.7-1.4l-15.1,1.2a1.4,1.4,0,0,0-1.3,1.6Z" transform="translate(-27.5 -42.4)"/>
    <g>
      <g>
        <polygon class="cls-24" points="437.8 161.4 416.1 123.7 443 108.2 454.4 151.9 437.8 161.4"/>
        <polygon class="cls-25" points="440.6 151.3 437.8 161.4 460.2 148.6 456.5 142.2 440.6 151.3"/>
        <polygon class="cls-26" points="440.6 151.3 464.9 193.6 459.3 140.5 440.6 151.3"/>
      </g>
      <g>
        <polygon class="cls-27" points="466.5 149.1 469 121.9 488.5 123.7 478.5 150.3 466.5 149.1"/>
        <polygon class="cls-25" points="471.6 144.9 466.5 149.1 482.6 150.6 483.1 146 471.6 144.9"/>
        <polygon class="cls-28" points="471.6 144.9 468.7 175.5 485.1 146.2 471.6 144.9"/>
      </g>
    </g>
    <path class="cls-29" d="M533.6,218.8a3.1,3.1,0,0,0,3.3,2.9h0a3.1,3.1,0,0,0,2.9-3.4l-.7-9.8a3.3,3.3,0,0,0-3.4-2.9h0a3.3,3.3,0,0,0-2.9,3.4Z" transform="translate(-27.5 -42.4)"/>
    <path class="cls-29" d="M535.2,240a3,3,0,0,0,3.4,2.8h0a3.1,3.1,0,0,0,2.9-3.3l-.8-9.8a3.2,3.2,0,0,0-3.4-2.9h0a3.2,3.2,0,0,0-2.9,3.4Z" transform="translate(-27.5 -42.4)"/>
    <g>
      <g>
        <g>
          <path class="cls-30" d="M506.5,372.6c11-14.9,22.7-30.2,25.3-33.2s31.3-37.6,30.6-58.6c-.9-27.1-17.9-38.4-17.9-38.4l-26.3,81.7c-16.4,9.1-25.7,31.4-30.4,49.9Z" transform="translate(-27.5 -42.4)"/>
          <path class="cls-31" d="M506.5,372.6c11-14.9,22.7-30.2,25.3-33.2s31.3-37.6,30.6-58.6c-.9-27.1-17.9-38.4-17.9-38.4l-26.3,81.7c-16.4,9.1-25.7,31.4-30.4,49.9Z" transform="translate(-27.5 -42.4)"/>
        </g>
        <g>
          <path class="cls-32" d="M592.8,407c-1.1-9.7-30.8-82.3-30.8-82.3s-12.7-35.1-23.6-53.9c0,0,11.8-17.9,5.6-42.9l-24.4,7.9s-17.2,23.6-13.4,47.5c3.5,21.9,39.6,52.2,39.6,52.2s1.3,21.5,6.1,28.8,18.3,22.4,28.5,32.9c-.3,1.8-.2,5.2,4.8,7.5,0,0,1,8.2,9.5,5.9C594.7,410.6,597.6,410.3,592.8,407Z" transform="translate(-27.5 -42.4)"/>
          <path class="cls-33" d="M592.5,405.7s.7,1.5-1.6.4c-4.1-2-10.5-8.9-10.5-8.9s-1.3,5.4,4.8,7.5c0,0,1,8.2,9.5,5.9C594.7,410.6,598.7,409.7,592.5,405.7Z" transform="translate(-27.5 -42.4)"/>
          <polygon class="cls-34" points="553.8 359.3 555.2 367.3 555.8 367.4 555.5 360 553.8 359.3"/>
        </g>
      </g>
      <g>
        <path class="cls-35" d="M521.3,191.5s1.6,13,13.8,13.2,16.9-14.5,10.1-21-9.1-10.4-10-17.9c-1.1-10.3-16.7-23.4-27.7-9.3,0,0-5.2-1.8-10.1,3.7s1,16.9-9.4,32,8.2,26.4,23.5,17.1S521.3,191.5,521.3,191.5Z" transform="translate(-27.5 -42.4)"/>
        <g>
          <g>
            <path class="cls-34" d="M582.8,196a2.2,2.2,0,0,1-2.9,1.4l-11.7-3.9a2.3,2.3,0,0,1-1.5-2.9l9.4-27.2a2.2,2.2,0,0,1,2.8-1.4l11.8,4a2.3,2.3,0,0,1,1.4,2.9Z" transform="translate(-27.5 -42.4)"/>
            <path class="cls-11" d="M582.8,196a2.1,2.1,0,0,1-2.6,1.5l-10.6-3.6a2.1,2.1,0,0,1-1.2-2.8l9.3-27.1a2.1,2.1,0,0,1,2.6-1.5l10.6,3.6a2.1,2.1,0,0,1,1.2,2.8Z" transform="translate(-27.5 -42.4)"/>
          </g>
          <g>
            <path class="cls-32" d="M511.1,190.8s3.2,8.9-1.2,10.3-11.8,2.4-14,8.5-9.2,25.8-9.2,25.8-15.2-27.6-19.2-27.1,10.7,45.3,18.2,46.2S506.9,224,506.9,224l10.5,14.4,29,6.2-1.9-31.3s17.9,13.4,24.2,12.1c9.5-2,22.8-41.2,20.1-42.5,0,0-9.6-16.2-2.1.9,0,0-9.7-16.6-1.6.9,0,0-7.4-10.7-.8,1.1,0,0-6.8-8.8-.9.8,0,0-14.2,26.3-15.8,26s-21.8-15.9-26.9-17.2-14.2,3.9-15.7,1.7-2.2-7.4-2.2-7.4" transform="translate(-27.5 -42.4)"/>
            <path class="cls-32" d="M474.6,216.1s1.7-.5,1.6-3.3-.8-6.5-2.8-6.6-9.8,4-.5,3.1c0,0-2.4-25.4-2.4-4.1,0,0-7.6-18.1-2.4,1.4,0,0-1.8-1.7-1.6.9,0,0-2.4-1.3-1.7,1.8s3.3,8.2,3.3,8.2Z" transform="translate(-27.5 -42.4)"/>
          </g>
          <path class="cls-32" d="M518.4,156.7s10.1,2.3,12.9,15.1-1.8,22.2-10.5,22c-12.3-.2-21.5-14-19.8-23.1S504.3,154.3,518.4,156.7Z" transform="translate(-27.5 -42.4)"/>
        </g>
        <circle class="cls-32" cx="514.2" cy="176.2" r="5.5" transform="translate(-23.2 322.1) rotate(-39.2)"/>
      </g>
      <g>
        <path class="cls-36" d="M517.4,238.4s-22,31.5-26.7,80c0,0,66.7,21.4,98.6-14.8,0,0-19.7-44.4-41.8-67.8l-1.3-8.7s9.9-7.9-.4-17.1c0,0-11.4-7.4-14.2-14.2l-2.4.9s6.3,12.9,4.1,19.7a43,43,0,0,1-23.4-15.3l-1.5.2s4.1,16.7,1.8,28.6Z" transform="translate(-27.5 -42.4)"/>
        <g class="cls-37">
          <g>
            <path class="cls-18" d="M480,207.3a2.1,2.1,0,0,1-1.6,2.4,2,2,0,0,1-2.3-1.6,1.9,1.9,0,0,1,1.5-2.4A2.1,2.1,0,0,1,480,207.3Z" transform="translate(-27.5 -42.4)"/>
            <path class="cls-18" d="M492.3,204.8a2,2,0,0,1-4,.8,2,2,0,0,1,1.6-2.3A2,2,0,0,1,492.3,204.8Z" transform="translate(-27.5 -42.4)"/>
            <path class="cls-18" d="M504.6,202.4a2.1,2.1,0,0,1-1.6,2.4,2,2,0,1,1-.8-4A2.1,2.1,0,0,1,504.6,202.4Z" transform="translate(-27.5 -42.4)"/>
            <path class="cls-18" d="M516.8,200a2,2,0,0,1-1.5,2.3,2.1,2.1,0,0,1-2.4-1.6,2,2,0,0,1,1.6-2.3A2,2,0,0,1,516.8,200Z" transform="translate(-27.5 -42.4)"/>
            <path class="cls-18" d="M529.1,197.5a2.1,2.1,0,0,1-1.6,2.4,2,2,0,0,1-2.3-1.6,2,2,0,1,1,3.9-.8Z" transform="translate(-27.5 -42.4)"/>
            <path class="cls-18" d="M541.4,195.1a2,2,0,0,1-1.6,2.3,2,2,0,1,1,1.6-2.3Z" transform="translate(-27.5 -42.4)"/>
            <path class="cls-18" d="M553.7,192.6a2,2,0,1,1-4,.8,2,2,0,1,1,4-.8Z" transform="translate(-27.5 -42.4)"/>
            <path class="cls-18" d="M488.5,213a2,2,0,0,1-1.5,2.4,2,2,0,1,1-.8-4A2,2,0,0,1,488.5,213Z" transform="translate(-27.5 -42.4)"/>
            <path class="cls-18" d="M500.8,210.6a2,2,0,1,1-3.9.7,2,2,0,0,1,1.6-2.3A2,2,0,0,1,500.8,210.6Z" transform="translate(-27.5 -42.4)"/>
            <path class="cls-18" d="M513.1,208.1a2.1,2.1,0,0,1-1.6,2.4,2,2,0,0,1-2.3-1.6,1.9,1.9,0,0,1,1.5-2.4A2.1,2.1,0,0,1,513.1,208.1Z" transform="translate(-27.5 -42.4)"/>
            <path class="cls-18" d="M525.4,205.7a2,2,0,0,1-1.6,2.3,2.1,2.1,0,0,1-2.4-1.6,2,2,0,0,1,1.6-2.3A2.1,2.1,0,0,1,525.4,205.7Z" transform="translate(-27.5 -42.4)"/>
            <path class="cls-18" d="M537.7,203.2a2,2,0,1,1-4,.8,2,2,0,1,1,4-.8Z" transform="translate(-27.5 -42.4)"/>
            <path class="cls-18" d="M549.9,200.8a2,2,0,0,1-1.6,2.3,1.9,1.9,0,0,1-2.3-1.5,2.1,2.1,0,0,1,1.6-2.4A2,2,0,0,1,549.9,200.8Z" transform="translate(-27.5 -42.4)"/>
            <path class="cls-18" d="M562.2,198.3a2.1,2.1,0,0,1-1.6,2.4,2,2,0,0,1-2.3-1.6,1.9,1.9,0,0,1,1.5-2.3A1.9,1.9,0,0,1,562.2,198.3Z" transform="translate(-27.5 -42.4)"/>
            <path class="cls-18" d="M483,222.5a2,2,0,0,1-1.5,2.4,2.1,2.1,0,0,1-2.4-1.6,2.1,2.1,0,0,1,1.6-2.4A2,2,0,0,1,483,222.5Z" transform="translate(-27.5 -42.4)"/>
            <path class="cls-18" d="M495.3,220.1a2,2,0,0,1-1.6,2.3,1.8,1.8,0,0,1-2.3-1.5,2,2,0,0,1,1.5-2.4A2.1,2.1,0,0,1,495.3,220.1Z" transform="translate(-27.5 -42.4)"/>
            <path class="cls-18" d="M507.6,217.6A2.1,2.1,0,0,1,506,220a2.1,2.1,0,0,1-2.4-1.6,2,2,0,0,1,1.6-2.3A1.9,1.9,0,0,1,507.6,217.6Z" transform="translate(-27.5 -42.4)"/>
            <path class="cls-18" d="M519.9,215.2a2.1,2.1,0,0,1-1.6,2.4,2,2,0,1,1-.8-4A2.1,2.1,0,0,1,519.9,215.2Z" transform="translate(-27.5 -42.4)"/>
            <path class="cls-18" d="M532.1,212.8a1.9,1.9,0,0,1-1.5,2.3,2.1,2.1,0,0,1-2.4-1.6,2,2,0,0,1,3.9-.7Z" transform="translate(-27.5 -42.4)"/>
            <path class="cls-18" d="M544.4,210.3a2.1,2.1,0,0,1-1.6,2.4,2,2,0,0,1-2.3-1.6,2.1,2.1,0,0,1,1.6-2.4A2,2,0,0,1,544.4,210.3Z" transform="translate(-27.5 -42.4)"/>
            <path class="cls-18" d="M556.7,207.9a2,2,0,0,1-1.6,2.3,2.1,2.1,0,0,1-2.4-1.6,2,2,0,0,1,1.6-2.3A2.1,2.1,0,0,1,556.7,207.9Z" transform="translate(-27.5 -42.4)"/>
            <path class="cls-18" d="M491.6,228.2a2,2,0,0,1-4,.8,2.1,2.1,0,0,1,1.6-2.4A2.1,2.1,0,0,1,491.6,228.2Z" transform="translate(-27.5 -42.4)"/>
            <path class="cls-18" d="M503.9,225.8a2.1,2.1,0,0,1-1.6,2.4,2,2,0,0,1-.8-4A2.1,2.1,0,0,1,503.9,225.8Z" transform="translate(-27.5 -42.4)"/>
            <path class="cls-18" d="M516.1,223.3a2,2,0,1,1-3.9.8,2,2,0,0,1,1.6-2.3A1.9,1.9,0,0,1,516.1,223.3Z" transform="translate(-27.5 -42.4)"/>
            <path class="cls-18" d="M528.4,220.9a2.1,2.1,0,0,1-1.6,2.4,2,2,0,0,1-2.3-1.6,2,2,0,0,1,1.5-2.4A2.1,2.1,0,0,1,528.4,220.9Z" transform="translate(-27.5 -42.4)"/>
            <path class="cls-18" d="M540.7,218.5a2,2,0,0,1-1.6,2.3,2.1,2.1,0,0,1-2.4-1.6,2,2,0,0,1,1.6-2.3A2.1,2.1,0,0,1,540.7,218.5Z" transform="translate(-27.5 -42.4)"/>
            <path class="cls-18" d="M553,216a2,2,0,1,1-4,.8,2,2,0,0,1,4-.8Z" transform="translate(-27.5 -42.4)"/>
            <path class="cls-18" d="M565.2,213.6a1.9,1.9,0,0,1-1.5,2.3,2,2,0,0,1-2.4-1.5,2.1,2.1,0,0,1,1.6-2.4A2,2,0,0,1,565.2,213.6Z" transform="translate(-27.5 -42.4)"/>
            <path class="cls-18" d="M486.1,237.8a2,2,0,0,1-1.6,2.3,2.1,2.1,0,0,1-2.4-1.6,2,2,0,0,1,1.6-2.3A2.1,2.1,0,0,1,486.1,237.8Z" transform="translate(-27.5 -42.4)"/>
            <path class="cls-18" d="M498.3,235.3a1.9,1.9,0,0,1-1.5,2.4,2.1,2.1,0,0,1-2.4-1.6,2.1,2.1,0,0,1,1.6-2.4A2,2,0,0,1,498.3,235.3Z" transform="translate(-27.5 -42.4)"/>
            <path class="cls-18" d="M510.6,232.9a2,2,0,0,1-1.6,2.3,1.9,1.9,0,0,1-2.3-1.5,2.1,2.1,0,0,1,1.6-2.4A2,2,0,0,1,510.6,232.9Z" transform="translate(-27.5 -42.4)"/>
            <path class="cls-18" d="M522.9,230.4a2.1,2.1,0,0,1-1.6,2.4,2,2,0,0,1-.8-4A2.1,2.1,0,0,1,522.9,230.4Z" transform="translate(-27.5 -42.4)"/>
            <path class="cls-18" d="M535.2,228a2.1,2.1,0,0,1-1.6,2.4,2,2,0,1,1,1.6-2.4Z" transform="translate(-27.5 -42.4)"/>
            <path class="cls-18" d="M547.5,225.5a2,2,0,1,1-4,.8,2,2,0,0,1,1.6-2.3A2,2,0,0,1,547.5,225.5Z" transform="translate(-27.5 -42.4)"/>
            <path class="cls-18" d="M559.7,223.1a2.1,2.1,0,0,1-1.6,2.4,2,2,0,0,1-2.3-1.6,2.1,2.1,0,0,1,1.6-2.4A2,2,0,0,1,559.7,223.1Z" transform="translate(-27.5 -42.4)"/>
            <path class="cls-18" d="M494.6,243.5a2,2,0,0,1-3.9.8,2,2,0,0,1,1.5-2.4A2.1,2.1,0,0,1,494.6,243.5Z" transform="translate(-27.5 -42.4)"/>
            <path class="cls-18" d="M506.9,241a2.1,2.1,0,0,1-1.6,2.4,2,2,0,0,1-.8-4A2.1,2.1,0,0,1,506.9,241Z" transform="translate(-27.5 -42.4)"/>
            <path class="cls-18" d="M519.2,238.6a2,2,0,0,1-1.6,2.3,1.9,1.9,0,0,1-2.4-1.5,2.1,2.1,0,0,1,1.6-2.4A2.1,2.1,0,0,1,519.2,238.6Z" transform="translate(-27.5 -42.4)"/>
            <path class="cls-18" d="M531.4,236.1a2,2,0,0,1-1.5,2.4,2.1,2.1,0,0,1-2.4-1.6,2,2,0,0,1,1.6-2.3A1.8,1.8,0,0,1,531.4,236.1Z" transform="translate(-27.5 -42.4)"/>
            <path class="cls-18" d="M543.7,233.7a2.1,2.1,0,0,1-1.6,2.4,2,2,0,0,1-2.3-1.6,2.1,2.1,0,0,1,1.6-2.4A2,2,0,0,1,543.7,233.7Z" transform="translate(-27.5 -42.4)"/>
            <path class="cls-18" d="M556,231.3a2,2,0,0,1-1.6,2.3A2.1,2.1,0,0,1,552,232a2,2,0,0,1,1.6-2.3A2.1,2.1,0,0,1,556,231.3Z" transform="translate(-27.5 -42.4)"/>
            <path class="cls-18" d="M568.3,228.8a2,2,0,1,1-2.4-1.6A2.1,2.1,0,0,1,568.3,228.8Z" transform="translate(-27.5 -42.4)"/>
            <path class="cls-18" d="M489.1,253a2.1,2.1,0,0,1-1.6,2.4,2,2,0,0,1-2.3-1.6,1.9,1.9,0,0,1,1.5-2.4A2.1,2.1,0,0,1,489.1,253Z" transform="translate(-27.5 -42.4)"/>
            <path class="cls-18" d="M501.4,250.6a2,2,0,0,1-1.6,2.3,2.1,2.1,0,0,1-2.4-1.6A2,2,0,0,1,499,249,2.1,2.1,0,0,1,501.4,250.6Z" transform="translate(-27.5 -42.4)"/>
            <path class="cls-18" d="M513.7,248.1a2,2,0,1,1-2.4-1.6A2.1,2.1,0,0,1,513.7,248.1Z" transform="translate(-27.5 -42.4)"/>
            <path class="cls-18" d="M525.9,245.7a2,2,0,0,1-1.6,2.3,2,2,0,0,1-2.3-1.5,2.1,2.1,0,0,1,1.6-2.4A2,2,0,0,1,525.9,245.7Z" transform="translate(-27.5 -42.4)"/>
            <path class="cls-18" d="M538.2,243.2a2.1,2.1,0,0,1-1.6,2.4,2,2,0,0,1-2.3-1.6,2,2,0,1,1,3.9-.8Z" transform="translate(-27.5 -42.4)"/>
            <path class="cls-18" d="M550.5,240.8a2,2,0,0,1-4,.8,2,2,0,1,1,4-.8Z" transform="translate(-27.5 -42.4)"/>
            <path class="cls-18" d="M562.8,238.3a2,2,0,1,1-4,.8,2,2,0,0,1,4-.8Z" transform="translate(-27.5 -42.4)"/>
            <path class="cls-18" d="M497.6,258.7a1.9,1.9,0,0,1-1.5,2.4,2,2,0,1,1-.8-4A2,2,0,0,1,497.6,258.7Z" transform="translate(-27.5 -42.4)"/>
            <path class="cls-18" d="M509.9,256.3a2,2,0,0,1-1.6,2.3A2,2,0,0,1,506,257a2,2,0,1,1,3.9-.7Z" transform="translate(-27.5 -42.4)"/>
            <path class="cls-18" d="M522.2,253.8a2.1,2.1,0,0,1-1.6,2.4,2,2,0,1,1-.8-4A2.1,2.1,0,0,1,522.2,253.8Z" transform="translate(-27.5 -42.4)"/>
            <path class="cls-18" d="M534.5,251.4a2,2,0,0,1-1.6,2.3,2,2,0,0,1-2.4-1.5,2,2,0,1,1,4-.8Z" transform="translate(-27.5 -42.4)"/>
            <path class="cls-18" d="M546.7,248.9a1.9,1.9,0,0,1-1.5,2.4,2.1,2.1,0,0,1-2.4-1.6,2.1,2.1,0,0,1,1.6-2.4A2,2,0,0,1,546.7,248.9Z" transform="translate(-27.5 -42.4)"/>
            <path class="cls-18" d="M559,246.5a2.1,2.1,0,0,1-1.6,2.4,2,2,0,0,1-2.3-1.6,2.1,2.1,0,0,1,1.6-2.4A2,2,0,0,1,559,246.5Z" transform="translate(-27.5 -42.4)"/>
            <path class="cls-18" d="M571.3,244a2.1,2.1,0,0,1-1.6,2.4,2,2,0,0,1-2.3-1.6,1.8,1.8,0,0,1,1.5-2.3A2,2,0,0,1,571.3,244Z" transform="translate(-27.5 -42.4)"/>
            <path class="cls-18" d="M492.1,268.2a2,2,0,1,1-3.9.8,2,2,0,0,1,1.6-2.3A1.8,1.8,0,0,1,492.1,268.2Z" transform="translate(-27.5 -42.4)"/>
            <path class="cls-18" d="M504.4,265.8a2.1,2.1,0,0,1-1.6,2.4,2,2,0,0,1-2.3-1.6,2,2,0,0,1,1.5-2.4A2.1,2.1,0,0,1,504.4,265.8Z" transform="translate(-27.5 -42.4)"/>
            <path class="cls-18" d="M516.7,263.3a2.1,2.1,0,0,1-1.6,2.4,2.1,2.1,0,0,1-2.4-1.6,2,2,0,0,1,1.6-2.3A2,2,0,0,1,516.7,263.3Z" transform="translate(-27.5 -42.4)"/>
            <path class="cls-18" d="M529,260.9a2,2,0,1,1-2.4-1.6A2.1,2.1,0,0,1,529,260.9Z" transform="translate(-27.5 -42.4)"/>
            <path class="cls-18" d="M541.2,258.5a1.9,1.9,0,0,1-1.5,2.3,2.1,2.1,0,0,1-2.4-1.6,2,2,0,0,1,1.6-2.3A2,2,0,0,1,541.2,258.5Z" transform="translate(-27.5 -42.4)"/>
            <path class="cls-18" d="M553.5,256a2.1,2.1,0,0,1-1.6,2.4,2,2,0,0,1-2.3-1.6,2.1,2.1,0,0,1,1.5-2.4A2.1,2.1,0,0,1,553.5,256Z" transform="translate(-27.5 -42.4)"/>
            <path class="cls-18" d="M565.8,253.6a2,2,0,0,1-1.6,2.3,2,2,0,1,1,1.6-2.3Z" transform="translate(-27.5 -42.4)"/>
            <path class="cls-18" d="M500.7,273.9a2,2,0,1,1-4,.8,2,2,0,0,1,1.6-2.3A1.9,1.9,0,0,1,500.7,273.9Z" transform="translate(-27.5 -42.4)"/>
            <path class="cls-18" d="M513,271.5a2.1,2.1,0,0,1-1.6,2.4,2,2,0,0,1-.8-4A2.1,2.1,0,0,1,513,271.5Z" transform="translate(-27.5 -42.4)"/>
            <path class="cls-18" d="M525.2,269.1a2,2,0,0,1-3.9.7,2,2,0,0,1,3.9-.7Z" transform="translate(-27.5 -42.4)"/>
            <path class="cls-18" d="M537.5,266.6a2.1,2.1,0,0,1-1.6,2.4,2,2,0,0,1-2.3-1.6,1.9,1.9,0,0,1,1.5-2.4A2.1,2.1,0,0,1,537.5,266.6Z" transform="translate(-27.5 -42.4)"/>
            <path class="cls-18" d="M549.8,264.2a2,2,0,0,1-1.6,2.3,2.1,2.1,0,0,1-2.4-1.5,2,2,0,0,1,4-.8Z" transform="translate(-27.5 -42.4)"/>
            <path class="cls-18" d="M562.1,261.7a2,2,0,0,1-4,.8,2,2,0,0,1,4-.8Z" transform="translate(-27.5 -42.4)"/>
            <path class="cls-18" d="M574.3,259.3a1.9,1.9,0,0,1-1.5,2.3,1.9,1.9,0,0,1-2.4-1.5,2.1,2.1,0,0,1,1.6-2.4A2,2,0,0,1,574.3,259.3Z" transform="translate(-27.5 -42.4)"/>
            <path class="cls-18" d="M495.2,283.5a2,2,0,0,1-1.6,2.3,2,2,0,0,1-2.4-1.5,2.1,2.1,0,0,1,1.6-2.4A2.1,2.1,0,0,1,495.2,283.5Z" transform="translate(-27.5 -42.4)"/>
            <path class="cls-18" d="M507.4,281a2,2,0,0,1-1.5,2.4,2.1,2.1,0,0,1-2.4-1.6,2.1,2.1,0,0,1,1.6-2.4A2,2,0,0,1,507.4,281Z" transform="translate(-27.5 -42.4)"/>
            <path class="cls-18" d="M519.7,278.6a2,2,0,0,1-1.6,2.3,1.8,1.8,0,0,1-2.3-1.5,2.1,2.1,0,0,1,1.6-2.4A2,2,0,0,1,519.7,278.6Z" transform="translate(-27.5 -42.4)"/>
            <path class="cls-18" d="M532,276.1a2.1,2.1,0,0,1-1.6,2.4,2.1,2.1,0,0,1-2.4-1.6,2,2,0,0,1,1.6-2.3A1.9,1.9,0,0,1,532,276.1Z" transform="translate(-27.5 -42.4)"/>
            <path class="cls-18" d="M544.3,273.7a2.1,2.1,0,0,1-1.6,2.4,2,2,0,1,1,1.6-2.4Z" transform="translate(-27.5 -42.4)"/>
            <path class="cls-18" d="M556.5,271.3a1.9,1.9,0,0,1-1.5,2.3,2.1,2.1,0,0,1-2.4-1.6,2,2,0,1,1,3.9-.7Z" transform="translate(-27.5 -42.4)"/>
            <path class="cls-18" d="M568.8,268.8a2.1,2.1,0,0,1-1.6,2.4,2,2,0,0,1-2.3-1.6,2.1,2.1,0,0,1,1.6-2.4A2,2,0,0,1,568.8,268.8Z" transform="translate(-27.5 -42.4)"/>
            <path class="cls-18" d="M503.7,289.2a2,2,0,0,1-1.6,2.3,1.8,1.8,0,0,1-2.3-1.5,2,2,0,0,1,1.5-2.4A2.1,2.1,0,0,1,503.7,289.2Z" transform="translate(-27.5 -42.4)"/>
            <path class="cls-18" d="M516,286.7a2.1,2.1,0,0,1-1.6,2.4,2.1,2.1,0,0,1-2.4-1.6,2,2,0,0,1,1.6-2.3A1.9,1.9,0,0,1,516,286.7Z" transform="translate(-27.5 -42.4)"/>
            <path class="cls-18" d="M528.3,284.3a2.1,2.1,0,0,1-1.6,2.4,2,2,0,0,1-.8-4A2.1,2.1,0,0,1,528.3,284.3Z" transform="translate(-27.5 -42.4)"/>
            <path class="cls-18" d="M540.5,281.8a2,2,0,0,1-1.5,2.4,2.1,2.1,0,0,1-2.4-1.6,2,2,0,0,1,1.6-2.3A1.9,1.9,0,0,1,540.5,281.8Z" transform="translate(-27.5 -42.4)"/>
            <path class="cls-18" d="M552.8,279.4a2.1,2.1,0,0,1-1.6,2.4,2,2,0,0,1-2.3-1.6,2,2,0,1,1,3.9-.8Z" transform="translate(-27.5 -42.4)"/>
            <path class="cls-18" d="M565.1,277a2,2,0,0,1-1.6,2.3,2.1,2.1,0,0,1-2.4-1.6,2,2,0,0,1,1.6-2.3A2.1,2.1,0,0,1,565.1,277Z" transform="translate(-27.5 -42.4)"/>
            <path class="cls-18" d="M577.4,274.5a2,2,0,1,1-4,.8,2,2,0,1,1,4-.8Z" transform="translate(-27.5 -42.4)"/>
            <path class="cls-18" d="M498.3,299.1a2,2,0,0,1-1.6,2.3,2.1,2.1,0,0,1-2.4-1.6,2,2,0,0,1,1.6-2.3A2.1,2.1,0,0,1,498.3,299.1Z" transform="translate(-27.5 -42.4)"/>
            <path class="cls-18" d="M510.5,296.6A1.9,1.9,0,0,1,509,299a2,2,0,1,1-.8-4A2,2,0,0,1,510.5,296.6Z" transform="translate(-27.5 -42.4)"/>
            <path class="cls-18" d="M522.8,294.2a2,2,0,0,1-3.9.8,2.1,2.1,0,0,1,1.6-2.4A2,2,0,0,1,522.8,294.2Z" transform="translate(-27.5 -42.4)"/>
            <path class="cls-18" d="M535.1,291.7a2.1,2.1,0,0,1-1.6,2.4,2,2,0,1,1-.8-4A2.1,2.1,0,0,1,535.1,291.7Z" transform="translate(-27.5 -42.4)"/>
            <path class="cls-18" d="M547.4,289.3a2,2,0,0,1-1.6,2.3,1.9,1.9,0,0,1-2.4-1.5,2,2,0,1,1,4-.8Z" transform="translate(-27.5 -42.4)"/>
            <path class="cls-18" d="M559.6,286.8a1.9,1.9,0,0,1-1.5,2.4,2.1,2.1,0,0,1-2.4-1.6,2,2,0,0,1,1.6-2.3A1.8,1.8,0,0,1,559.6,286.8Z" transform="translate(-27.5 -42.4)"/>
            <path class="cls-18" d="M571.9,284.4a2.1,2.1,0,0,1-1.6,2.4,2,2,0,0,1-2.3-1.6,2.1,2.1,0,0,1,1.6-2.4A2,2,0,0,1,571.9,284.4Z" transform="translate(-27.5 -42.4)"/>
            <path class="cls-18" d="M506.8,304.8a2,2,0,0,1-1.6,2.3,2,2,0,0,1-.8-3.9A2.1,2.1,0,0,1,506.8,304.8Z" transform="translate(-27.5 -42.4)"/>
            <path class="cls-18" d="M519.1,302.3a2.1,2.1,0,0,1-1.6,2.4,2,2,0,0,1-.8-4A2.1,2.1,0,0,1,519.1,302.3Z" transform="translate(-27.5 -42.4)"/>
            <path class="cls-18" d="M531.4,299.9a2,2,0,0,1-1.6,2.3,2,2,0,0,1-2.4-1.5,2.1,2.1,0,0,1,1.6-2.4A2.1,2.1,0,0,1,531.4,299.9Z" transform="translate(-27.5 -42.4)"/>
            <path class="cls-18" d="M543.6,297.4a2,2,0,0,1-1.5,2.4,2.1,2.1,0,0,1-2.4-1.6,2.1,2.1,0,0,1,1.6-2.4A2,2,0,0,1,543.6,297.4Z" transform="translate(-27.5 -42.4)"/>
            <path class="cls-18" d="M555.9,295a2.1,2.1,0,0,1-1.6,2.4,2,2,0,0,1-2.3-1.6,2,2,0,1,1,3.9-.8Z" transform="translate(-27.5 -42.4)"/>
            <path class="cls-18" d="M568.2,292.5a2.1,2.1,0,0,1-1.6,2.4,2.1,2.1,0,0,1-2.4-1.6,2,2,0,0,1,1.6-2.3A2,2,0,0,1,568.2,292.5Z" transform="translate(-27.5 -42.4)"/>
            <path class="cls-18" d="M580.5,290.1a2.1,2.1,0,0,1-1.6,2.4,2,2,0,1,1,1.6-2.4Z" transform="translate(-27.5 -42.4)"/>
            <path class="cls-18" d="M501.3,314.3a2.1,2.1,0,0,1-1.6,2.4,2,2,0,0,1-2.3-1.6,1.9,1.9,0,0,1,1.5-2.4A2.1,2.1,0,0,1,501.3,314.3Z" transform="translate(-27.5 -42.4)"/>
            <path class="cls-18" d="M513.6,311.8a2,2,0,1,1-4,.8,2,2,0,0,1,1.6-2.3A2,2,0,0,1,513.6,311.8Z" transform="translate(-27.5 -42.4)"/>
            <path class="cls-18" d="M525.8,309.4a1.9,1.9,0,0,1-1.5,2.4,2,2,0,1,1-.8-4A2,2,0,0,1,525.8,309.4Z" transform="translate(-27.5 -42.4)"/>
            <path class="cls-18" d="M538.1,307a2,2,0,1,1-2.3-1.6A2,2,0,0,1,538.1,307Z" transform="translate(-27.5 -42.4)"/>
            <path class="cls-18" d="M550.4,304.5a2.1,2.1,0,0,1-1.6,2.4,2,2,0,0,1-.8-4A2.1,2.1,0,0,1,550.4,304.5Z" transform="translate(-27.5 -42.4)"/>
            <path class="cls-18" d="M562.7,302.1a2,2,0,0,1-1.6,2.3,2,2,0,1,1,1.6-2.3Z" transform="translate(-27.5 -42.4)"/>
            <path class="cls-18" d="M575,299.6a2,2,0,0,1-4,.8,2,2,0,1,1,4-.8Z" transform="translate(-27.5 -42.4)"/>
            <path class="cls-18" d="M509.8,320a2,2,0,1,1-2.3-1.6A2,2,0,0,1,509.8,320Z" transform="translate(-27.5 -42.4)"/>
            <path class="cls-18" d="M522.1,317.6a2,2,0,0,1-1.6,2.3,2,2,0,1,1-.7-3.9A2,2,0,0,1,522.1,317.6Z" transform="translate(-27.5 -42.4)"/>
            <path class="cls-18" d="M534.4,315.1a2.1,2.1,0,0,1-1.6,2.4,2.1,2.1,0,0,1-2.4-1.6,2,2,0,1,1,4-.8Z" transform="translate(-27.5 -42.4)"/>
            <path class="cls-18" d="M546.7,312.7a2,2,0,0,1-1.6,2.3,2,2,0,1,1,1.6-2.3Z" transform="translate(-27.5 -42.4)"/>
            <path class="cls-18" d="M558.9,310.2a1.9,1.9,0,0,1-1.5,2.4A2.1,2.1,0,0,1,555,311a2.1,2.1,0,0,1,1.6-2.4A2,2,0,0,1,558.9,310.2Z" transform="translate(-27.5 -42.4)"/>
            <path class="cls-18" d="M571.2,307.8a2,2,0,0,1-1.6,2.3,1.9,1.9,0,0,1-2.3-1.5,2.1,2.1,0,0,1,1.6-2.4A2,2,0,0,1,571.2,307.8Z" transform="translate(-27.5 -42.4)"/>
            <path class="cls-18" d="M583.5,305.3a2.1,2.1,0,0,1-1.6,2.4,2,2,0,0,1-2.3-1.6,1.8,1.8,0,0,1,1.5-2.3A1.9,1.9,0,0,1,583.5,305.3Z" transform="translate(-27.5 -42.4)"/>
            <path class="cls-18" d="M504.3,329.5a2.1,2.1,0,0,1-1.6,2.4,2,2,0,0,1-2.3-1.6,2.1,2.1,0,0,1,1.6-2.4A2,2,0,0,1,504.3,329.5Z" transform="translate(-27.5 -42.4)"/>
            <path class="cls-18" d="M516.6,327.1a2,2,0,0,1-1.6,2.3,1.8,1.8,0,0,1-2.3-1.5,1.9,1.9,0,0,1,1.5-2.4A2.1,2.1,0,0,1,516.6,327.1Z" transform="translate(-27.5 -42.4)"/>
            <path class="cls-18" d="M528.9,324.6a2.1,2.1,0,0,1-1.6,2.4,2.1,2.1,0,0,1-2.4-1.6,2,2,0,0,1,1.6-2.3A1.9,1.9,0,0,1,528.9,324.6Z" transform="translate(-27.5 -42.4)"/>
            <path class="cls-18" d="M541.2,322.2a2.1,2.1,0,0,1-1.6,2.4,2,2,0,1,1-.8-4A2.1,2.1,0,0,1,541.2,322.2Z" transform="translate(-27.5 -42.4)"/>
            <path class="cls-18" d="M553.4,319.8a1.9,1.9,0,0,1-1.5,2.3,2.1,2.1,0,0,1-2.4-1.6,2,2,0,1,1,3.9-.7Z" transform="translate(-27.5 -42.4)"/>
            <path class="cls-18" d="M565.7,317.3a2.1,2.1,0,0,1-1.6,2.4,2,2,0,0,1-2.3-1.6,2,2,0,0,1,1.5-2.4A2.1,2.1,0,0,1,565.7,317.3Z" transform="translate(-27.5 -42.4)"/>
            <path class="cls-18" d="M578,314.9a2,2,0,0,1-1.6,2.3,2.1,2.1,0,0,1-2.4-1.5,2,2,0,0,1,4-.8Z" transform="translate(-27.5 -42.4)"/>
            <path class="cls-18" d="M512.9,335.2a2,2,0,1,1-4,.8,2,2,0,0,1,1.6-2.3A1.9,1.9,0,0,1,512.9,335.2Z" transform="translate(-27.5 -42.4)"/>
            <path class="cls-18" d="M525.1,332.8a2,2,0,0,1-1.5,2.4,2,2,0,0,1-.8-4A2,2,0,0,1,525.1,332.8Z" transform="translate(-27.5 -42.4)"/>
            <path class="cls-18" d="M537.4,330.3a2.1,2.1,0,0,1-1.6,2.4,2,2,0,0,1-2.3-1.6,2,2,0,0,1,3.9-.8Z" transform="translate(-27.5 -42.4)"/>
            <path class="cls-18" d="M549.7,327.9a2.1,2.1,0,0,1-1.6,2.4,2,2,0,0,1-2.3-1.6,1.9,1.9,0,0,1,1.5-2.4A2.1,2.1,0,0,1,549.7,327.9Z" transform="translate(-27.5 -42.4)"/>
            <path class="cls-18" d="M562,325.5a2,2,0,0,1-1.6,2.3,2.1,2.1,0,0,1-2.4-1.6,2,2,0,0,1,1.6-2.3A2.1,2.1,0,0,1,562,325.5Z" transform="translate(-27.5 -42.4)"/>
            <path class="cls-18" d="M574.3,323a2,2,0,1,1-4,.8,2,2,0,1,1,4-.8Z" transform="translate(-27.5 -42.4)"/>
            <path class="cls-18" d="M586.5,320.6a2,2,0,0,1-1.5,2.3,2,2,0,0,1-2.4-1.5,2.1,2.1,0,0,1,1.6-2.4A2,2,0,0,1,586.5,320.6Z" transform="translate(-27.5 -42.4)"/>
          </g>
        </g>
        <path class="cls-34" d="M515.7,237.1l.7,3s17.9.5,32.1-3.6l-1.1-5.1A250,250,0,0,1,515.7,237.1Z" transform="translate(-27.5 -42.4)"/>
      </g>
      <g>
        <path class="cls-35" d="M509.2,158.9s5.4,7.2,17,5.3l-6-1.7s6.2-.5,9,3c0,0,.1-8.2-7.6-11.7s-13.6-.4-16.2,5.1S509.2,158.9,509.2,158.9Z" transform="translate(-27.5 -42.4)"/>
        <path class="cls-35" d="M507.5,170.7s-1.6,8.4,2.3,13.3,9.9,17.2-.5,19.2c-5.9-.2-7.5.5-7.5.5s-4.1-1.7-5.2-4.3c-2.1-4.7-2.5-16.1-1.7-20.6,1.8-9.7,7.6-23,12.6-22.3S513.3,166.5,507.5,170.7Z" transform="translate(-27.5 -42.4)"/>
      </g>
    </g>
    <g>
      <g>
        <g>
          <polygon class="cls-32" points="657.3 154.5 657.1 164.2 649.5 165.5 658.7 175.2 677.4 170.5 675.6 166 670 165.3 669.5 152.7 657.3 154.5"/>
          <g>
            <ellipse class="cls-32" cx="675.5" cy="142.3" rx="6.2" ry="6.1"/>
            <path class="cls-32" d="M683.9,165.3s-10.4,3.4-12.2,17,3.4,23.1,12.5,22.5c15.3-1.2,21.7-17.2,19.1-26.5S698.3,161.4,683.9,165.3Z" transform="translate(-27.5 -42.4)"/>
            <g>
              <path class="cls-35" d="M705.6,168.8s-6.8-5.8,1.3-12c0,0-1.6,5.2-1.4,4.9s2.3-9.4,9.2-6.1,6.1,8.3,6.1,8.3-2.1-4.5-4.9-3.8c0,0,7,3.3,4.2,9.4s2.1,3.3,2.1,3.3-.7,6.5-5.6,3.3a7,7,0,0,1-2.9-8.4s-.3,11,2.8,11.3C716.5,179,707.9,180.3,705.6,168.8Z" transform="translate(-27.5 -42.4)"/>
              <path class="cls-35" d="M697.7,173s2.6,26.4-3.6,34.2c0,0,8.4-6.4,10.1-29.8l-1.8,3.9-.5,2.1s4.3-4.8,5.4-1.2-1.8,8.2-4.9,7.7l-2.9,7s11.4-5.2,12.1-15.8-4.5-16.9-11.9-17.3c0,0-7.4-9-17.1-4.1s-20.1,16.9-14.7,40.3c0,0,2.3-22,11.5-30.8l-8.1,9.2s12.4,2.5,19.2-7.9c0,0-3.9,7.7-7.7,9C682.8,179.5,690.7,181.3,697.7,173Z" transform="translate(-27.5 -42.4)"/>
            </g>
          </g>
        </g>
        <path class="cls-32" d="M653.3,233.7s-2.8,20.7,14.1,32.4c4,2.8,12.8-21.9,11.8-27.7-.2-1.3-12.6,10.8-12.9,9.5a77.8,77.8,0,0,0-2.7-8.2Z" transform="translate(-27.5 -42.4)"/>
        <g>
          <g>
            <g>
              <path class="cls-32" d="M684.4,365.4s9.9,25.1,19.9,41.5c0,0-3.6,9.2-2.3,9.2s8.6-10.4,7.6-11.2-1.3-36.1-14-45C686.5,353.4,684.4,365.4,684.4,365.4Z" transform="translate(-27.5 -42.4)"/>
              <path class="cls-33" d="M703.8,408.4s-2.9,6.7-.1,4.1,5.9-7.6,5.9-7.6l.4,1s-6.3,11.7-8.3,10.6S703.8,408.4,703.8,408.4Z" transform="translate(-27.5 -42.4)"/>
            </g>
            <g>
              <path class="cls-32" d="M658.8,350.3s-3.8,41.8-17.3,64.4c0,0-18.8-15.1-2.7-6.8,0,0,1.2-55.7,4.6-63.2S658.8,350.3,658.8,350.3Z" transform="translate(-27.5 -42.4)"/>
              <path class="cls-33" d="M641.5,414.7s-16.7-12.6-5.9-8.5c0,0-4.8-.9,7.1,6.5Z" transform="translate(-27.5 -42.4)"/>
            </g>
          </g>
          <path class="cls-38" d="M698.7,255s12.1,6,14.7,27.5-14.7,64-14.7,64l12.7,48.8s-1.4,5.8-14,6.7c0,0-24.1-44.3-25.2-52.7-1.8-13.9,5.8-44.6,5.8-44.6L652.4,402s-7.2,2.3-16.7-4c0,0,3.1-118.1,37.8-144.9Z" transform="translate(-27.5 -42.4)"/>
        </g>
        <g>
          <path class="cls-34" d="M714,216.1c-1.1-4.7-6.3-7.3-12.8-8.7a15,15,0,0,1-10.6,5c-4.7.3-10.1-1.6-11.6-6.1a67.1,67.1,0,0,0-9.3,1.1c-6,1.3-5,19.5-5,19.5-14.5,13.6,1.7,21,1.7,21l-1,7.8c21.9,4,43.9,6,43.9,6S717,229.3,714,216.1Z" transform="translate(-27.5 -42.4)"/>
          <g>
            <path class="cls-32" d="M710,229.6l-15.8-2.4s-3.6,20-4.5,19.7-32.4-14.6-34.2-13.8-1.8,6.3-1.8,6.3,30.7,25.3,41.7,22S710,229.6,710,229.6Z" transform="translate(-27.5 -42.4)"/>
            <g>
              <g>
                <path class="cls-34" d="M658.3,247.8a2.1,2.1,0,0,0,2.4,1.7l11-1.9a2.1,2.1,0,0,0,1.7-2.4l-4.5-25.5a2,2,0,0,0-2.3-1.7l-11.1,1.9a2.1,2.1,0,0,0-1.6,2.4Z" transform="translate(-27.5 -42.4)"/>
                <path class="cls-11" d="M658.3,247.8a1.9,1.9,0,0,0,2.1,1.7l10-1.7a2,2,0,0,0,1.5-2.3L667.4,220a1.9,1.9,0,0,0-2.1-1.7l-10,1.6a2,2,0,0,0-1.4,2.4Z" transform="translate(-27.5 -42.4)"/>
              </g>
              <path class="cls-32" d="M653.3,233.7s9.2-13.5,2.9-.8c0,0,11.2-8.4-.3,2.8,0,0,12-6.3.3,2.1,0,0,10.4-4.9,2,1.7C652,244.4,653.3,233.7,653.3,233.7Z" transform="translate(-27.5 -42.4)"/>
            </g>
          </g>
        </g>
      </g>
      <g>
        <rect class="cls-39" x="592.2" y="88.9" width="37.2" height="37.15" rx="6.2"/>
        <path class="cls-40" d="M630.9,150.4a2.9,2.9,0,1,1-2.8-2.8A2.8,2.8,0,0,1,630.9,150.4Z" transform="translate(-27.5 -42.4)"/>
        <path class="cls-40" d="M641.4,150.4a2.8,2.8,0,1,1-2.8-2.8A2.7,2.7,0,0,1,641.4,150.4Z" transform="translate(-27.5 -42.4)"/>
        <path class="cls-40" d="M652,150.4a2.9,2.9,0,1,1-2.9-2.8A2.8,2.8,0,0,1,652,150.4Z" transform="translate(-27.5 -42.4)"/>
        <polygon class="cls-39" points="622 122 622 137.6 610.9 124 622 122"/>
        <path class="cls-18" d="M630.3,150a2.8,2.8,0,1,1-2.8-2.8A2.8,2.8,0,0,1,630.3,150Z" transform="translate(-27.5 -42.4)"/>
        <path class="cls-18" d="M640.9,150a2.9,2.9,0,1,1-2.8-2.8A2.9,2.9,0,0,1,640.9,150Z" transform="translate(-27.5 -42.4)"/>
        <path class="cls-18" d="M651.4,150a2.8,2.8,0,1,1-2.8-2.8A2.8,2.8,0,0,1,651.4,150Z" transform="translate(-27.5 -42.4)"/>
      </g>
    </g>
    <g>
      <g>
        <g>
          <g>
            <path class="cls-7" d="M260,343.7c-1.1,3.5-4.7,5.5-8,7.3s-6.7,4.4-6.7,8.1,4.7,7.6,4.7,12-3.3,6.4-6.7,7.5-7,1-10.5,1.7-7.2,2.7-8.3,6.1h-.2c.1-3.6-2.8-6.6-5.9-8.4s-6.6-2.9-9.4-5-5.1-5.8-4-9.2,7-5.7,8.3-9.9-1.3-7.1-3.8-9.9-5.4-5.7-5.3-9.4,3.9-7.2,7.6-9.4,7.7-4.6,8.7-8.7-2.4-9.7-2.5-14.7,3.3-9.6,7.8-11.8,9.7-2.3,14.6-1.5,9.8,2.5,13.3,6,5.4,9,3.7,13.7-6.8,8.1-7.1,13.2,2.8,7.7,5.5,10.9S261.3,339.7,260,343.7Z" transform="translate(-27.5 -42.4)"/>
            <path class="cls-41" d="M224.2,388c-.2,0-.4-.2-.3-.4L237.7,296c0-.2.2-.3.4-.3s.4.3.4.5l-13.9,91.5c0,.2-.2.4-.4.3Z" transform="translate(-27.5 -42.4)"/>
            <path class="cls-41" d="M226.3,374.5a.2.2,0,0,1-.2-.2c-.2-.2-.1-.4.1-.5a110.4,110.4,0,0,0,13.1-10.6.5.5,0,0,1,.6.1c.1.1.1.3-.1.5a103.8,103.8,0,0,1-13.2,10.6Z" transform="translate(-27.5 -42.4)"/>
            <path class="cls-41" d="M229.4,354.4l-.3-.2c-.1-.2-.1-.4.1-.5l17.5-12.5a.3.3,0,0,1,.5.1c.1.2.1.4-.1.5l-17.5,12.5Z" transform="translate(-27.5 -42.4)"/>
            <path class="cls-41" d="M232.3,333.6h-.2c-.1-.2-.1-.4.1-.5l9.9-7.6a.5.5,0,0,1,.6.1.4.4,0,0,1-.1.5l-10,7.6Z" transform="translate(-27.5 -42.4)"/>
            <path class="cls-41" d="M235.1,315.8h-.2a.6.6,0,0,1,0-.6l13-10.5a.3.3,0,0,1,.5.1.4.4,0,0,1,0,.5l-13,10.5Z" transform="translate(-27.5 -42.4)"/>
            <path class="cls-41" d="M226,374.4h.3a.5.5,0,0,0,.1-.6,95.3,95.3,0,0,1-9.1-14.2.6.6,0,0,0-.6-.1.4.4,0,0,0-.1.5,112.3,112.3,0,0,0,9.2,14.3Z" transform="translate(-27.5 -42.4)"/>
            <path class="cls-41" d="M229.4,354h.3a.3.3,0,0,0,0-.5L217.1,336a.3.3,0,0,0-.5,0c-.2.1-.2.3-.1.5l12.6,17.3Z" transform="translate(-27.5 -42.4)"/>
            <path class="cls-41" d="M232.2,332.9h.3a.4.4,0,0,0,.1-.5L225.5,322c-.1-.2-.3-.2-.5-.1a.3.3,0,0,0-.1.5l7,10.3Z" transform="translate(-27.5 -42.4)"/>
            <path class="cls-41" d="M235.2,315.1h.3a.7.7,0,0,0,.1-.6l-9-14c-.1-.2-.3-.2-.5-.1s-.2.3-.1.5l8.9,14Z" transform="translate(-27.5 -42.4)"/>
          </g>
          <g>
            <path class="cls-3" d="M241.9,340.8a58.8,58.8,0,0,0-16.8,20.8c-4,8-6.5,16.7-8.6,25.4l.2.2c8.9.6,18,.7,26.8-.8s17.5-4.7,24.7-10.1,13-13.3,17.2-21.6,7.1-17.1,10-26c-9.3.2-18.7.4-27.8,2S249.4,335.3,241.9,340.8Z" transform="translate(-27.5 -42.4)"/>
            <path class="cls-18" d="M216.3,386.9c.1.2.3.2.5.1L285,337.7c.2-.1.2-.3.1-.5s-.3-.2-.5-.1l-68.3,49.3a.5.5,0,0,0,0,.5Z" transform="translate(-27.5 -42.4)"/>
            <path class="cls-18" d="M225.2,380.1l.2.2a.5.5,0,0,0,.5-.3,93.8,93.8,0,0,1,3.3-16.6.5.5,0,0,0-.3-.5c-.2,0-.4.1-.4.3a103,103,0,0,0-3.4,16.7C225.1,380,225.1,380.1,225.2,380.1Z" transform="translate(-27.5 -42.4)"/>
            <path class="cls-18" d="M237,371.9l.3.2a.4.4,0,0,0,.4-.4l3.1-21.2c0-.2-.1-.4-.3-.4a.5.5,0,0,0-.5.3l-3,21.2Z" transform="translate(-27.5 -42.4)"/>
            <path class="cls-18" d="M268.7,349.1l.2.2c.2,0,.4-.1.4-.3l3.4-16.3c.1-.2-.1-.4-.3-.5s-.4.1-.4.3l-3.4,16.3A.4.4,0,0,0,268.7,349.1Z" transform="translate(-27.5 -42.4)"/>
            <path class="cls-18" d="M225.3,380.4v-.3c0-.2.2-.4.4-.3a118,118,0,0,0,16.8,1.6.4.4,0,0,1,.4.4c0,.2-.2.3-.4.3a105.2,105.2,0,0,1-16.9-1.6Z" transform="translate(-27.5 -42.4)"/>
            <path class="cls-18" d="M237.4,371.7c-.1,0-.1-.1-.1-.2a.4.4,0,0,1,.4-.4l21.2,3.3c.2,0,.4.2.3.4s-.2.4-.4.3l-21.2-3.2A.2.2,0,0,1,237.4,371.7Z" transform="translate(-27.5 -42.4)"/>
            <path class="cls-18" d="M269.2,348.7v-.2a.4.4,0,0,1,.4-.4l16.6,1.5c.2,0,.3.2.3.4a.4.4,0,0,1-.4.4l-16.6-1.5Z" transform="translate(-27.5 -42.4)"/>
            <path class="cls-18" d="M252,361.1l.2.2a.4.4,0,0,0,.4-.4l3.1-21.2c0-.2-.1-.4-.3-.4s-.4.1-.4.3l-3.1,21.2A.4.4,0,0,0,252,361.1Z" transform="translate(-27.5 -42.4)"/>
            <path class="cls-18" d="M252.3,360.9c-.1,0-.1-.1-.1-.3s.2-.3.4-.3l21.2,3.3a.4.4,0,0,1,.4.4.5.5,0,0,1-.5.3l-21.2-3.2A.2.2,0,0,1,252.3,360.9Z" transform="translate(-27.5 -42.4)"/>
          </g>
        </g>
        <g>
          <g>
            <path class="cls-3" d="M70.3,345.7c2.5,3.2,7,3.8,11,4.4s8.6,2,10.1,5.8-2,9.7-.3,14.2,5.8,5.3,9.7,5.2,7.6-1.7,11.5-2.3,8.4,0,10.8,3.1h.2c-1.4-3.7.4-7.8,2.9-10.9s5.7-5.4,7.8-8.7,3-8,.5-11-9.4-3.2-12.3-7-1.3-7.9.2-11.6,3.3-8,1.9-11.7-6.9-6-11.4-6.9-9.7-1.7-12.4-5.5-1.2-10.9-3-16.2-7-8.6-12.5-9.1-10.8,1.3-15.5,4.1-9.2,6.3-11.5,11.2-2.1,11.3,1.5,15.5,10,5.8,12.3,10.8.1,9.1-1.5,13.4S67.5,342.1,70.3,345.7Z" transform="translate(-27.5 -42.4)"/>
            <path class="cls-18" d="M124.1,377.6c.2-.1.3-.3.1-.5L75.1,288.2a.4.4,0,1,0-.8.4l49.2,88.9c.1.2.4.2.6.1Z" transform="translate(-27.5 -42.4)"/>
            <path class="cls-18" d="M116.7,364.5c.1-.1.2-.2.2-.3s-.1-.4-.3-.5A109.9,109.9,0,0,1,99,357.9a.4.4,0,0,0-.5.2.5.5,0,0,0,.2.6,111,111,0,0,0,17.7,5.8C116.5,364.6,116.6,364.5,116.7,364.5Z" transform="translate(-27.5 -42.4)"/>
            <path class="cls-18" d="M105.9,345c.1-.1.2-.2.2-.3s-.1-.4-.3-.5L83.1,338a.5.5,0,0,0-.5.3.5.5,0,0,0,.3.6l22.7,6.1Z" transform="translate(-27.5 -42.4)"/>
            <path class="cls-18" d="M94.9,324.8c.1-.1.2-.1.2-.3a.4.4,0,0,0-.2-.5l-13.2-3.9a.4.4,0,0,0-.5.2.5.5,0,0,0,.3.6l13.1,3.9Z" transform="translate(-27.5 -42.4)"/>
            <path class="cls-18" d="M85.3,307.5c.1,0,.1-.1.2-.2s-.1-.5-.3-.5l-17.3-5.9a.3.3,0,0,0-.5.3.4.4,0,0,0,.2.5l17.3,5.8A.3.3,0,0,0,85.3,307.5Z" transform="translate(-27.5 -42.4)"/>
            <path class="cls-18" d="M117,364.3h-.3c-.3-.1-.4-.3-.3-.5a124.4,124.4,0,0,0,4-18.1.4.4,0,0,1,.4-.4.5.5,0,0,1,.4.5,113.7,113.7,0,0,1-4,18.2Z" transform="translate(-27.5 -42.4)"/>
            <path class="cls-18" d="M105.8,344.6h-.4c-.2,0-.3-.3-.2-.5l6.3-22.6c.1-.3.3-.4.5-.3a.4.4,0,0,1,.3.5L106,344.3C105.9,344.5,105.8,344.5,105.8,344.6Z" transform="translate(-27.5 -42.4)"/>
            <path class="cls-18" d="M94.8,324c-.1,0-.2.1-.3,0a.4.4,0,0,1-.3-.5l3.3-13.3a.5.5,0,0,1,.5-.3c.2.1.4.3.3.5L95,323.7C95,323.8,94.9,323.9,94.8,324Z" transform="translate(-27.5 -42.4)"/>
            <path class="cls-18" d="M84.9,306.8h-.3a.5.5,0,0,1-.3-.5l3.8-17.9c.1-.2.3-.4.5-.3s.4.3.4.5l-3.9,17.8C85.1,306.7,85,306.8,84.9,306.8Z" transform="translate(-27.5 -42.4)"/>
          </g>
          <g>
            <path class="cls-7" d="M76.4,377.5a22.3,22.3,0,0,0,25.9,8.6c3.9-1.4,7.2-3.9,10.8-6.1a24.5,24.5,0,0,1,9-3.7,24,24,0,0,1-2.2-9.5c-.2-4.2-.1-8.4-1.2-12.4-2.4-9.5-12.1-16.6-21.9-16.2-6.9.3-13.9,3.9-20.4,1.4s-10.1-12-16.8-16.2a14.7,14.7,0,0,0-13.1-1.2c-4.2,1.6-9,9.3-9,9.3s-4.3,9.8-3.2,14.2a15.1,15.1,0,0,0,8.6,10c7.3,3,16.4,0,22.9,4.4S72.7,371.7,76.4,377.5Z" transform="translate(-27.5 -42.4)"/>
            <path class="cls-41" d="M121.9,376.6c.1-.2.1-.4-.1-.5l-74-39.7a.4.4,0,0,0-.5.2.6.6,0,0,0,.1.6l74,39.6a.4.4,0,0,0,.5-.2Z" transform="translate(-27.5 -42.4)"/>
            <path class="cls-41" d="M115.2,372.9a.3.3,0,0,0-.4-.5,104.8,104.8,0,0,1-16,5.6.5.5,0,0,0-.3.5c0,.2.2.4.4.3a99.8,99.8,0,0,0,16.1-5.7A.2.2,0,0,0,115.2,372.9Z" transform="translate(-27.5 -42.4)"/>
            <path class="cls-41" d="M104.7,367.3V367c-.1-.2-.3-.4-.5-.3l-22.4,7.2c-.2.1-.4.3-.3.5s.3.4.5.3l22.4-7.2Z" transform="translate(-27.5 -42.4)"/>
            <path class="cls-41" d="M84.5,356.3V356c0-.2-.3-.3-.5-.3l-13.2,3.9c-.2,0-.3.3-.3.5a.6.6,0,0,0,.6.3l13.1-3.9Z" transform="translate(-27.5 -42.4)"/>
            <path class="cls-41" d="M67,347.1v-.3a.5.5,0,0,0-.5-.3L48.8,351c-.2.1-.4.3-.3.5a.3.3,0,0,0,.5.3l17.7-4.5Z" transform="translate(-27.5 -42.4)"/>
            <path class="cls-41" d="M115.4,372.6l-.3.3c-.2,0-.4-.1-.4-.3a109,109,0,0,0-4.6-16.3.5.5,0,0,1,.2-.6.4.4,0,0,1,.5.2,110.3,110.3,0,0,1,4.6,16.4Z" transform="translate(-27.5 -42.4)"/>
            <path class="cls-41" d="M104.3,367.1l-.2.2c-.2,0-.5-.1-.5-.3l-7-22.5a.4.4,0,0,1,.2-.5.5.5,0,0,1,.6.3l7,22.4A.6.6,0,0,1,104.3,367.1Z" transform="translate(-27.5 -42.4)"/>
            <path class="cls-41" d="M83.9,355.7a.2.2,0,0,1-.2.2c-.2.1-.5,0-.5-.2l-4.5-13c-.1-.2.1-.4.3-.5a.4.4,0,0,1,.5.2l4.5,13A.4.4,0,0,1,83.9,355.7Z" transform="translate(-27.5 -42.4)"/>
            <path class="cls-41" d="M66.3,346.7a.2.2,0,0,1-.2.2.5.5,0,0,1-.6-.2L59,329.6c-.1-.2.1-.4.3-.5a.4.4,0,0,1,.5.2l6.5,17.1C66.4,346.5,66.3,346.6,66.3,346.7Z" transform="translate(-27.5 -42.4)"/>
          </g>
        </g>
        <g>
          <g>
            <rect class="cls-42" x="73.9" y="126.1" width="124.1" height="219.42" rx="9.1"/>
            <path class="cls-7" d="M216,389.2H110.7a10.6,10.6,0,0,1-10.5-10.6V178a10.5,10.5,0,0,1,10.5-10.6H216A10.5,10.5,0,0,1,226.6,178V378.6A10.6,10.6,0,0,1,216,389.2ZM110.7,169.8a8.2,8.2,0,0,0-8.2,8.2V378.6a8.2,8.2,0,0,0,8.2,8.2H216a8.2,8.2,0,0,0,8.2-8.2V178a8.1,8.1,0,0,0-8.2-8.2Z" transform="translate(-27.5 -42.4)"/>
          </g>
          <rect class="cls-43" x="70.7" y="145.7" width="1.9" height="45.9"/>
          <rect class="cls-43" x="70.7" y="197.2" width="1.9" height="30.22"/>
          <polygon class="cls-44" points="131 145.7 80.5 196.3 80.5 145.7 131 145.7"/>
          <polygon class="cls-44" points="191.6 145.7 191.6 197.2 80.5 308.4 80.5 244.1 178.8 145.7 191.6 145.7"/>
          <polygon class="cls-44" points="191.6 256.9 191.6 321.6 126.9 321.6 191.6 256.9"/>
          <polygon class="cls-44" points="178.8 145.7 80.5 244.1 80.5 196.3 131 145.7 178.8 145.7"/>
          <polygon class="cls-44" points="191.6 197.2 191.6 256.9 126.9 321.6 80.5 321.6 80.5 308.4 191.6 197.2"/>
          <path class="cls-11" d="M186.4,379.7h-46a3.8,3.8,0,0,1-3.7-3.8v-2.7a3.8,3.8,0,0,1,3.7-3.8h46a3.8,3.8,0,0,1,3.7,3.8v2.7A3.8,3.8,0,0,1,186.4,379.7Zm-46-9.1a2.6,2.6,0,0,0-2.5,2.6v2.7a2.5,2.5,0,0,0,2.5,2.6h46a2.5,2.5,0,0,0,2.5-2.6v-2.7a2.6,2.6,0,0,0-2.5-2.6Z" transform="translate(-27.5 -42.4)"/>
          <path class="cls-45" d="M197.7,181.7H128a2.3,2.3,0,0,1-2.3-2.3,2.3,2.3,0,0,1,2.3-2.3h69.7a2.3,2.3,0,0,1,2.3,2.3A2.3,2.3,0,0,1,197.7,181.7ZM128,178.3a1.1,1.1,0,1,0,0,2.2h69.7a1.1,1.1,0,1,0,0-2.2Z" transform="translate(-27.5 -42.4)"/>
          <path class="cls-45" d="M111.8,183.7a4.5,4.5,0,1,1,4.5-4.4A4.4,4.4,0,0,1,111.8,183.7Zm0-7.7a3.3,3.3,0,0,0-3.3,3.3,3.3,3.3,0,0,0,6.6,0A3.3,3.3,0,0,0,111.8,176Z" transform="translate(-27.5 -42.4)"/>
          <path class="cls-45" d="M120.1,181.9a2.3,2.3,0,1,1,0-4.6,2.3,2.3,0,1,1,0,4.6Zm0-3.4a1.1,1.1,0,1,0,0,2.2,1.1,1.1,0,1,0,0-2.2Z" transform="translate(-27.5 -42.4)"/>
        </g>
        <path class="cls-46" d="M148.5,224.5H148V224Z" transform="translate(-27.5 -42.4)"/>
        <path class="cls-47" d="M170.6,266.2c-5.2,3.7-7.8,10.4-7.8,10.4-1.5-6.6-16.2-11.4-17.2-16s3.3-7.4,3.3-7.4l25.4.6c.3,4.7,2.4,4.5,2.4,4.5C177.2,262.5,175.9,262.5,170.6,266.2Z" transform="translate(-27.5 -42.4)"/>
        <g>
          <path class="cls-32" d="M184,231.6c-.7,4.6-3.3,5-3.3,5s-1,3.8-1.8,7.7c-.3,1.6-2.2,3.8-4.6,5.8a22.6,22.6,0,0,0,0,3.7c.3,4.7,2.4,4.5,2.4,4.5.5,4.2-.8,4.2-6.1,7.9s-7.8,10.4-7.8,10.4c-1.5-6.6-16.2-11.4-17.2-16s3.3-7.4,3.3-7.4,1.3-9.6,1.3-9.6c-1.3-3.1-1.4-8.6-1.4-8.6-7-2.2-6.8-10.8-3.7-11.4a3.5,3.5,0,0,1,2.8.4l.6.5a5.8,5.8,0,0,1,.8,1c1,6.1,2.2,3.4,2.8-.8a31,31,0,0,0,.2-8.5c-.8-4.6,7.7-13.3,11.7-7s14.9,5.7,16.2,6.3.2,6.1.1,10.6,0,5.8.8,5.8,2.2-5.6,2.2-5.6S184.6,226.9,184,231.6Z" transform="translate(-27.5 -42.4)"/>
          <path class="cls-38" d="M207.9,274c.2,3.2-10.9,31-10.9,31h-5.3c-.9,5.3-2.2,22.2-.7,31.5s0,27.7,0,27.7H123.1s-.7-8.7-.7-19.2,7.3-25.2-1.1-37.3-19.3-28.1-15.7-34.8,29.9-9.2,31.3-13.7,12-6,12-6-4.3,2.9-3.3,7.4,15.7,9.4,17.2,16c0,0,2.6-6.7,7.8-10.4s6.6-3.7,6.1-7.9c0,0-2.1.2-2.4-4.5h0c3.8,0,9.7,3.5,11,6.3s-3.8,4.8-1.2,6,7.2.8,12.9,2.7A53.9,53.9,0,0,1,207.9,274Z" transform="translate(-27.5 -42.4)"/>
          <path class="cls-35" d="M187.5,210.2c-4.1,7-1.9,10.5-4.2,16.1,0,0-1.6,5.7-2.2,5.7s-.9-2.7-.8-5.9.6-10.2-.1-10.6-12.3.1-16.2-6.3-12.5,2.4-11.7,7a31,31,0,0,1-.2,8.5c-.6,4.2-1.8,6.9-2.8.8a5.8,5.8,0,0,0-.8-1l-.6-.5c-.2-1.4-1-6.5-2.1-11.9s-.4-6,3.5-7.9,4.6-7.6,9.2-8.2,10,4.4,17.3,3.4S191.7,203.3,187.5,210.2Z" transform="translate(-27.5 -42.4)"/>
        </g>
        <path class="cls-48" d="M94.2,174.6l11.5,137.8L220,302.8,208.5,165.1Zm115.2,96.5-98.5,8.2-8.3-98.5,98.6-8.3Z" transform="translate(-27.5 -42.4)"/>
        <path class="cls-32" d="M119.8,311.2c-12.1,45.7-22.9,35.9-22.9,35.9h0a6.3,6.3,0,0,1-3.8-3.2c-4.5-7-4.9-15.2-1.3-26.1a98.5,98.5,0,0,0,4.6-18.6,17.6,17.6,0,0,1-1.9-9,33.5,33.5,0,0,1,2.4-9.3c.8-2.4,1.7-4.8,2.6-7.2s1.3-3.2,2.7-3.6c-.1-.5.9-.8,1.3-.4a2.5,2.5,0,0,1,.1,1.7c-.5,2.8-1.1,5.6-1.6,8.3,1.8-.2,3.2-1.6,4.6-2.7s3.4-2,5-1.1a5.7,5.7,0,0,1,1.8,3.6,48.6,48.6,0,0,1,1.4,8.5,17.1,17.1,0,0,1-1.6,8.4,14.1,14.1,0,0,1-5.5,5.6l-1.8.8a78.1,78.1,0,0,1,1.6,9.6h0Z" transform="translate(-27.5 -42.4)"/>
        <g>
          <path class="cls-46" d="M213.7,303.7l-.9-.3h.8A.8.8,0,0,0,213.7,303.7Z" transform="translate(-27.5 -42.4)"/>
          <path class="cls-32" d="M225.2,344.3c-1.2,1.8-2.5,2.9-3.9,3.2h0s-17.5,3.2-29.6-42.6l20.5-1.5h.6l.9.3a.8.8,0,0,1-.1-.3h-.8l-.5-.2-1.7-.8a13.5,13.5,0,0,1-5.5-5.6,16.1,16.1,0,0,1-1.7-8.4,60.3,60.3,0,0,1,1.4-8.5,5.3,5.3,0,0,1,1.9-3.6c1.5-.9,3.5,0,4.9,1.1s2.8,2.5,4.6,2.7c-.5-2.7-1-5.5-1.6-8.3-.1-.6-.2-1.3.2-1.7s1.4-.2,1.2.4c1.5.4,2.2,2.1,2.8,3.6s1.7,4.8,2.6,7.2a37.3,37.3,0,0,1,2.3,9.3,17.6,17.6,0,0,1-1.9,9,109.2,109.2,0,0,0,4.6,18.6C230.1,329.1,229.7,337.3,225.2,344.3Z" transform="translate(-27.5 -42.4)"/>
          <path class="cls-46" d="M213.7,303.7l-.9-.3h.8A.8.8,0,0,0,213.7,303.7Z" transform="translate(-27.5 -42.4)"/>
          <path class="cls-46" d="M212.3,303.2l.5.2h-.6A.8.8,0,0,0,212.3,303.2Z" transform="translate(-27.5 -42.4)"/>
          <path class="cls-46" d="M213.7,303.7l-.9-.3h.8A.8.8,0,0,0,213.7,303.7Z" transform="translate(-27.5 -42.4)"/>
        </g>
      </g>
      <g>
        <g>
          <circle class="cls-49" cx="35.2" cy="175" r="13.4"/>
          <ellipse class="cls-18" cx="59" cy="210.4" rx="2.8" ry="2.3" transform="translate(-186.9 161.4) rotate(-72.6)"/>
          <ellipse class="cls-18" cx="68.7" cy="213.5" rx="2.8" ry="2.3" transform="translate(-183 172.8) rotate(-72.6)"/>
          <path class="cls-18" d="M61.2,220.9a4.6,4.6,0,0,1-3.1-2.4,4.7,4.7,0,0,1,.2-3.3.8.8,0,1,1,1.5.7,2.3,2.3,0,0,0,1.9,3.4,3.3,3.3,0,0,0,2.6-.1,2.9,2.9,0,0,0,1.2-1.6.8.8,0,0,1,1-.6.9.9,0,0,1,.6,1,4.3,4.3,0,0,1-2,2.7A4.7,4.7,0,0,1,61.2,220.9Z" transform="translate(-27.5 -42.4)"/>
        </g>
        <g>
          <path class="cls-50" d="M45.7,260.2s-.1,3.7,3.2,4a4,4,0,0,0,4.5,2.9,4.1,4.1,0,0,0,5.8.9c3.7-2.4,13-13.6,13-13.6l-8.3-8.8a9.7,9.7,0,0,0-5.7-1.7c-3.1.2-8.6-2.2-11-5s-7.9,3.5-1.3,7.2,6,4.3,3.4,5.7S42.2,255.9,45.7,260.2Z" transform="translate(-27.5 -42.4)"/>
          <path class="cls-44" d="M65.4,241.5l3.5-3.3a2.1,2.1,0,0,1,2.9-.1l8.3,8.8a2.2,2.2,0,0,1-.2,3l-3.5,3.2a2.1,2.1,0,0,1-3,.1l-8.3-8.8A2.1,2.1,0,0,1,65.4,241.5Zm12.1,8.2a1.5,1.5,0,1,0-2.2.1A1.5,1.5,0,0,0,77.5,249.7Z" transform="translate(-27.5 -42.4)"/>
        </g>
        <g>
          <circle class="cls-51" cx="11.6" cy="234.2" r="9.4"/>
          <path class="cls-18" d="M34.1,278.8l9.3-6.9a5.7,5.7,0,0,1-1.8,7.7C37,282.9,34.1,278.8,34.1,278.8Z" transform="translate(-27.5 -42.4)"/>
          <path class="cls-18" d="M41.5,271.7h-.2l-9.8,3a.6.6,0,0,1-.7-.3.7.7,0,0,1,.4-.7l9.8-3c.3-.1.6.1.6.3A.6.6,0,0,1,41.5,271.7Z" transform="translate(-27.5 -42.4)"/>
          <path class="cls-18" d="M33.7,277.6h-.5a.5.5,0,0,1-.2-.6l5.2-8.3c.1-.3.4-.3.7-.2a.5.5,0,0,1,.1.7l-5.1,8.3Z" transform="translate(-27.5 -42.4)"/>
        </g>
        <path class="cls-39" d="M82.9,303.1a6.9,6.9,0,0,1,2,9.6c0,.1,0,.2-.1.2v.2c-1.1,1.5-6.9,8.9-21.2,6.9a26.9,26.9,0,0,1-4.3-12.6,17.4,17.4,0,0,1,1.2-7.8h0a11.5,11.5,0,0,1,1-1.8h0a7,7,0,0,1,11.7,7.7h0v-.2A7,7,0,0,1,82.9,303.1Z" transform="translate(-27.5 -42.4)"/>
      </g>
      <g>
        <path class="cls-39" d="M126.5,228.1c-4,5.4,4.3,8.2,4.3,8.2-32.5-1.4-43.3-13.2-43.3-13.2a15.7,15.7,0,0,1-5.7-10.9c-.8-11.4,12.4-21.6,29.4-22.7s31.4,7.2,32.1,18.6c.6,8.4-6.4,16.1-16.8,20Z" transform="translate(-27.5 -42.4)"/>
        <rect class="cls-18" x="61.8" y="160" width="46.3" height="1.53" rx="0.8"/>
        <rect class="cls-18" x="61.9" y="167.1" width="30.7" height="1.53" rx="0.8"/>
        <rect class="cls-18" x="63.1" y="174.1" width="35.8" height="1.53" rx="0.8"/>
      </g>
      <g>
        <g>
          <path class="cls-50" d="M259.5,238.3s3,.7,2.6,3.5a3.1,3.1,0,0,1,1.3,4.1,3.4,3.4,0,0,1-.4,5c-2.7,2.5-13.8,7.8-13.8,7.8l-5.4-8.6a8.2,8.2,0,0,1-.2-5c.8-2.5,0-7.5-1.8-10s4.5-5.7,6.1.4,2.3,5.8,4,4S256.6,234.5,259.5,238.3Z" transform="translate(-27.5 -42.4)"/>
          <path class="cls-44" d="M242.6,250.8l5.5,8.6a1.9,1.9,0,0,1-.7,2.4L244,264a1.9,1.9,0,0,1-2.5-.4l-5.4-8.6a1.7,1.7,0,0,1,.7-2.4l3.3-2.2A1.9,1.9,0,0,1,242.6,250.8Zm2.3,9.4a1.4,1.4,0,0,0-1.9-.3,1.3,1.3,0,0,0-.5,1.8,1.3,1.3,0,0,0,1.8.3A1.4,1.4,0,0,0,244.9,260.2Z" transform="translate(-27.5 -42.4)"/>
        </g>
        <path class="cls-39" d="M246.4,284.4a6.9,6.9,0,0,1,9.8.4l.2.2h.1c1.3,1.5,6.9,8.9,1.5,22.3a28,28,0,0,1-13.3,1.1,18.6,18.6,0,0,1-7.3-3.2h0a14,14,0,0,1-1.6-1.4h0a7,7,0,0,1,.6-9.6,7.1,7.1,0,0,1,9.7.1H246A7,7,0,0,1,246.4,284.4Z" transform="translate(-27.5 -42.4)"/>
        <g>
          <circle class="cls-49" cx="226.4" cy="161.6" r="9.4"/>
          <ellipse class="cls-18" cx="252.2" cy="198.7" rx="2" ry="1.6" transform="translate(-67.8 288.7) rotate(-62.6)"/>
          <ellipse class="cls-18" cx="258.5" cy="202" rx="2" ry="1.6" transform="translate(-67.3 296.2) rotate(-62.6)"/>
          <path class="cls-18" d="M252.4,206.2a3.2,3.2,0,0,1-1.8-2,3.3,3.3,0,0,1,.5-2.3.6.6,0,0,1,.8-.1.5.5,0,0,1,.1.8,2.5,2.5,0,0,0-.3,1.4,2.8,2.8,0,0,0,1.2,1.2,2.1,2.1,0,0,0,1.8.3,2,2,0,0,0,1.1-1,.6.6,0,0,1,1.1.5,4.1,4.1,0,0,1-1.8,1.6A3,3,0,0,1,252.4,206.2Z" transform="translate(-27.5 -42.4)"/>
        </g>
        <g>
          <circle class="cls-51" cx="246.3" cy="227.5" r="13.4"/>
          <path class="cls-18" d="M266.1,269.7l16.1-3s.8,7-7.1,8.5S266.1,269.7,266.1,269.7Z" transform="translate(-27.5 -42.4)"/>
          <path class="cls-18" d="M279.9,265.1h-.3l-14.4-2.2c-.4-.1-.7-.4-.6-.8s.4-.6.8-.6l14.4,2.2c.4.1.7.4.6.8A.6.6,0,0,1,279.9,265.1Z" transform="translate(-27.5 -42.4)"/>
          <path class="cls-18" d="M266.4,267.9a.8.8,0,0,1-.8-.3.8.8,0,0,1,.2-1l11.7-7.4a.7.7,0,1,1,.8,1.2l-11.7,7.4Z" transform="translate(-27.5 -42.4)"/>
        </g>
      </g>
    </g>
    <g>
      <g>
        <g>
          <g>
            <g>
              <path class="cls-33" d="M314.5,399.5l.5,12.2s-23.5.7-23.7-1.7,13.4-4.5,13.4-4.5l-.4-9.3Z" transform="translate(-27.5 -42.4)"/>
              <path class="cls-52" d="M314.7,403.9l-.2-4.4-10.2-3.3.3,7.1C308,403.6,311.3,403.9,314.7,403.9Z" transform="translate(-27.5 -42.4)"/>
            </g>
            <g>
              <path class="cls-33" d="M336,399.5l-.5,12.2s23.5.7,23.7-1.7-13.4-4.5-13.4-4.5l.4-9.3Z" transform="translate(-27.5 -42.4)"/>
              <path class="cls-52" d="M335.8,403.9l.2-4.4,10.2-3.3-.3,7.1C342.5,403.6,339.2,403.9,335.8,403.9Z" transform="translate(-27.5 -42.4)"/>
            </g>
          </g>
          <path class="cls-38" d="M349.5,275.5H301.4s-5.1,84,1,125.4l13.4,1.1s5.7-97.4,6.8-98.2a18.2,18.2,0,0,1,5.7,0c1.1.8,6.4,98.2,6.4,98.2l13.4-1.1C354.2,359.5,349.5,275.5,349.5,275.5Z" transform="translate(-27.5 -42.4)"/>
        </g>
        <g>
          <path class="cls-32" d="M313.7,201.6s-.6-8.6-1.4-17.7c-.9-11.1-1.7-23.3.1-25,3.3-2.9,17.6-4,23.7.3s9.7,40.5-7.4,36.5l.3,6,4.5.2-7,9.5L302.3,205Z" transform="translate(-27.5 -42.4)"/>
          <path class="cls-35" d="M319.4,161.9s7.5,5.4,9.7,4.2-2.2-4.1-2.2-4.1,5.8,4.2,8.3,4.1-2.7-4.6-2.7-4.6,6.8,3.4,8.4,1.9-2.9-3.9-2.9-3.9,5,.4,6.1-1.5-5.6-2.8-6-2.8,6.8,1.4,6.8-1.7-8-1.4-8-1.4,6.8-4.2,4.9-5.4-7.4,1.4-9.8,3.2c0,0,4.3-5,3.2-5.8s-9,5.4-9,5.4,3.7-4.1,2.6-5.5-7.5,4.9-7.5,4.9,3.6-5.4,2.4-5.6-7.6,5.8-7.6,5.8,2.2-3,1-3.8-9.8,5.5-10.9,16.1c-1.5,16.3,6.4,26,6.4,26l-.7-7.9.6-7.6,1,5.8,1.9-.4-.4-4.4S319.9,166.8,319.4,161.9Z" transform="translate(-27.5 -42.4)"/>
          <path class="cls-32" d="M312.7,171.4s-3.5-3.7-4.1,2.9,4.6,8.1,4.6,8.1Z" transform="translate(-27.5 -42.4)"/>
          <path class="cls-53" d="M328.7,195.8c-8.3-2.6-13.2-6-16.1-10.2.9,9.3,1.1,16,1.1,16l-9,2.7,20.1,9.2,8.7-11.6-4.5-.2Z" transform="translate(-27.5 -42.4)"/>
        </g>
        <g>
          <g>
            <path class="cls-32" d="M363.1,237.2s-.6,37.2-12.2,33.7-.6-30.2-.6-30.2Z" transform="translate(-27.5 -42.4)"/>
            <path class="cls-36" d="M347.7,204.2c-1.6-.7-9.2-2.1-15.2-2.6a10.4,10.4,0,0,1-9.3,5.5,17.4,17.4,0,0,1-12.1-5.5c0-.1-18.1,1-22.1,7.9s-.9,19.7-.9,19.7H290l7.7,11.2s-1,16.4.9,45.2a348.8,348.8,0,0,0,54.6-3.2s-2.7-34.4-4.3-56.4c-.1-.7,6.8-2.9,6.8-2.9S354.4,207.1,347.7,204.2Z" transform="translate(-27.5 -42.4)"/>
          </g>
          <path class="cls-32" d="M290,229.2l17-2.6s4.1,24.7,5.1,24.4,34.6-18.9,36.6-18,1.9,6.8,1.9,6.8-33.4,31.7-45.2,28.2S290,229.2,290,229.2Z" transform="translate(-27.5 -42.4)"/>
          <g>
            <path class="cls-34" d="M357.4,248.9a2.2,2.2,0,0,1-2.5,1.7l-11.7-2a2.1,2.1,0,0,1-1.7-2.4l4.7-26.9a2.1,2.1,0,0,1,2.4-1.8l11.7,2A2.2,2.2,0,0,1,362,222Z" transform="translate(-27.5 -42.4)"/>
            <path class="cls-11" d="M357.4,248.9a2.2,2.2,0,0,1-2.3,1.8l-10.5-1.8a2.1,2.1,0,0,1-1.5-2.5l4.6-26.8a2.1,2.1,0,0,1,2.3-1.8l10.5,1.7A2.1,2.1,0,0,1,362,222Z" transform="translate(-27.5 -42.4)"/>
            <path class="cls-32" d="M361.8,231.8s-10.9-16.4-2.9-.4c0,0-14.1-10.5.4,3.6,0,0-15.1-8-.4,2.5,0,0-13.1-6.1-2.5,2.3S361.8,231.8,361.8,231.8Z" transform="translate(-27.5 -42.4)"/>
          </g>
        </g>
      </g>
      <g>
        <polygon class="cls-39" points="333.6 142.3 333.6 157.8 344.6 144.3 333.6 142.3"/>
        <rect class="cls-39" x="326.1" y="109.2" width="37.2" height="37.15" rx="6.2"/>
        <path class="cls-40" d="M371.1,181.1s-14.2-7.7-10.9-14.9,10.3-3.2,10.9,1.9c0,0,7.6-9.3,10.4-1S371.1,181.1,371.1,181.1Z" transform="translate(-27.5 -42.4)"/>
        <path class="cls-18" d="M372.8,179.4s-14.2-7.7-10.9-14.9,10.3-3.2,10.9,1.8c0,0,7.6-9.2,10.4-.9S372.8,179.4,372.8,179.4Z" transform="translate(-27.5 -42.4)"/>
      </g>
    </g>
  </g>
</svg>
